<svg width="155" height="113" viewBox="0 0 155 113" fill="none" xmlns="http://www.w3.org/2000/svg">
<mask id="mask0_1_43" style="mask-type:luminance" maskUnits="userSpaceOnUse" x="-12" y="36" width="135" height="40">
<path d="M122.658 36.6226H-11.4043V75.7777H122.658V36.6226Z" fill="white"/>
</mask>
<g mask="url(#mask0_1_43)">
<path d="M62.136 52.9805C64.736 52.9805 66.843 55.0878 66.843 57.6872V64.1198C66.843 64.2932 66.703 64.4336 66.529 64.4336H65.274C65.101 64.4336 64.96 64.2932 64.96 64.1198V57.6872C64.96 56.1276 63.696 54.8632 62.136 54.8632C60.577 54.8632 59.313 56.1276 59.313 57.6872V64.1198C59.313 64.2932 59.172 64.4336 58.999 64.4336H57.744C57.57 64.4336 57.43 64.2932 57.43 64.1198V57.6872C57.43 55.0878 59.537 52.9805 62.136 52.9805Z" fill="#0A0B1E"/>
<path d="M57.744 52.9805H58.999C59.172 52.9805 59.313 53.121 59.313 53.2943V63.4922C59.313 63.6656 59.172 63.806 58.999 63.806H57.744C57.57 63.806 57.43 63.6656 57.43 63.4922V53.2943C57.43 53.121 57.57 52.9805 57.744 52.9805Z" fill="#0A0B1E"/>
<path d="M77.825 64.4341C82.451 64.4341 86.14 60.7463 86.14 56.1972C86.14 51.6482 82.451 47.9604 77.825 47.9604C77.411 47.9604 76.731 47.9604 75.783 47.9604V50H77.825C81.413 50 84.257 52.8444 84.257 56.354C84.257 59.8637 81.413 62.5513 77.825 62.5513C77.401 62.5513 76.721 62.5513 75.783 62.5513V64.4341H77.825Z" fill="#0A0B1E"/>
<path d="M74.374 47.9604H75.943V64.4341H74.374C74.201 64.4341 74.061 64.2935 74.061 64.1201V48.2742C74.061 48.1009 74.201 47.9604 74.374 47.9604Z" fill="#0A0B1E"/>
<path fill-rule="evenodd" clip-rule="evenodd" d="M38.4453 56.1972C38.4453 51.6482 42.1331 47.9604 46.6821 47.9604C51.2309 47.9604 54.9191 51.6482 54.9191 56.1972C54.9191 60.7463 51.2309 64.4341 46.6821 64.4341C42.1331 64.4341 38.4453 60.7463 38.4453 56.1972ZM46.6821 49.8432C43.1729 49.8432 40.328 52.688 40.328 56.1972C40.328 59.7065 43.1729 62.5513 46.6821 62.5513C50.1913 62.5513 53.0362 59.7065 53.0362 56.1972C53.0362 52.688 50.1913 49.8432 46.6821 49.8432Z" fill="#0A0B1E"/>
<path d="M114.945 56.9685L118.619 53.3841C118.678 53.327 118.756 53.295 118.838 53.295H120.842C120.929 53.295 120.999 53.3652 120.999 53.4519C120.999 53.4935 120.983 53.5334 120.953 53.5628L116.907 57.6095L122.267 64.1776C122.321 64.2447 122.311 64.3436 122.245 64.3984C122.216 64.4213 122.181 64.4337 122.145 64.4337L120.27 64.4305C120.176 64.4303 120.088 64.3888 120.029 64.3171L115.573 58.943L114.945 59.5706V64.1166C114.945 64.2898 114.805 64.4303 114.632 64.4303H113.376C113.203 64.4303 113.062 64.2898 113.062 64.1166V49.0589C113.062 48.8856 113.203 48.7451 113.376 48.7451H114.632C114.805 48.7451 114.945 48.8856 114.945 49.0589V56.9685Z" fill="#0A0B1E"/>
<path d="M110.381 54.7184L110.321 54.6534C109.326 53.6196 107.953 52.9805 106.436 52.9805C104.878 52.9805 103.471 53.6137 102.47 54.6785C101.512 55.7023 100.936 57.1148 100.936 58.707C100.936 62.0266 103.398 64.4336 106.436 64.4336C107.947 64.4336 109.315 63.7994 110.309 62.7729L110.305 62.7688L110.374 62.6959C110.49 62.5737 110.488 62.3821 110.371 62.2616L109.496 61.3622C109.379 61.2411 109.187 61.2362 109.063 61.3493C108.396 62.0947 107.454 62.5509 106.436 62.5509C104.424 62.5509 102.818 60.973 102.818 58.707C102.818 56.441 104.424 54.8632 106.436 54.8632C107.457 54.8632 108.401 55.322 109.069 56.0712C109.194 56.1778 109.381 56.1704 109.498 56.0511L110.374 55.1491C110.491 55.0299 110.493 54.841 110.381 54.7184Z" fill="#0A0B1E"/>
<path d="M88.258 58.707C88.258 55.4733 90.637 52.9805 93.758 52.9805C96.765 52.9805 99.159 55.472 99.256 58.5155C99.235 58.6681 99.103 58.7855 98.945 58.7855H91.74C91.567 58.7855 91.426 58.645 91.426 58.4717V57.6872C91.426 57.5139 91.567 57.3734 91.74 57.3734H97.154C96.638 55.887 95.284 54.8632 93.758 54.8632C91.747 54.8632 90.141 56.441 90.141 58.707C90.141 60.973 91.747 62.5509 93.758 62.5509C94.777 62.5509 95.718 62.0947 96.386 61.3493C96.509 61.2362 96.701 61.2411 96.819 61.3622L97.694 62.2616C97.811 62.3821 97.812 62.5737 97.697 62.6959L97.628 62.7688L97.632 62.773C96.642 63.7964 95.279 64.4336 93.758 64.4336C90.637 64.4336 88.258 61.9408 88.258 58.707Z" fill="#0A0B1E"/>
<path d="M62.136 52.9805C64.736 52.9805 66.843 55.0878 66.843 57.6872V64.1198C66.843 64.2932 66.703 64.4336 66.529 64.4336H65.274C65.101 64.4336 64.96 64.2932 64.96 64.1198V57.6872C64.96 56.1276 63.696 54.8632 62.136 54.8632C60.577 54.8632 59.313 56.1276 59.313 57.6872V64.1198C59.313 64.2932 59.172 64.4336 58.999 64.4336H57.744C57.57 64.4336 57.43 64.2932 57.43 64.1198V57.6872C57.43 55.0878 59.537 52.9805 62.136 52.9805Z" stroke="#0A0B1E" stroke-width="0.350643" stroke-linejoin="round"/>
<path d="M57.744 52.9805H58.999C59.172 52.9805 59.313 53.121 59.313 53.2943V63.4922C59.313 63.6656 59.172 63.806 58.999 63.806H57.744C57.57 63.806 57.43 63.6656 57.43 63.4922V53.2943C57.43 53.121 57.57 52.9805 57.744 52.9805Z" stroke="#0A0B1E" stroke-width="0.350643" stroke-linejoin="round"/>
<path d="M77.825 64.4341C82.451 64.4341 86.14 60.7463 86.14 56.1972C86.14 51.6482 82.451 47.9604 77.825 47.9604C77.411 47.9604 76.731 47.9604 75.783 47.9604V50H77.825C81.413 50 84.257 52.8444 84.257 56.354C84.257 59.8637 81.413 62.5513 77.825 62.5513C77.401 62.5513 76.721 62.5513 75.783 62.5513V64.4341H77.825Z" stroke="#0A0B1E" stroke-width="0.350643" stroke-linejoin="round"/>
<path d="M74.374 47.9604H75.943V64.4341H74.374C74.201 64.4341 74.061 64.2935 74.061 64.1201V48.2742C74.061 48.1009 74.201 47.9604 74.374 47.9604Z" stroke="#0A0B1E" stroke-width="0.350643" stroke-linejoin="round"/>
<path fill-rule="evenodd" clip-rule="evenodd" d="M38.4453 56.1972C38.4453 51.6482 42.1331 47.9604 46.6821 47.9604C51.2309 47.9604 54.9191 51.6482 54.9191 56.1972C54.9191 60.7463 51.2309 64.4341 46.6821 64.4341C42.1331 64.4341 38.4453 60.7463 38.4453 56.1972ZM46.6821 49.8432C43.1729 49.8432 40.328 52.688 40.328 56.1972C40.328 59.7065 43.1729 62.5513 46.6821 62.5513C50.1913 62.5513 53.0362 59.7065 53.0362 56.1972C53.0362 52.688 50.1913 49.8432 46.6821 49.8432Z" stroke="#0A0B1E" stroke-width="0.350643" stroke-linejoin="round"/>
<path d="M114.945 56.9685L118.619 53.3841C118.678 53.327 118.756 53.295 118.838 53.295H120.842C120.929 53.295 120.999 53.3652 120.999 53.4519C120.999 53.4935 120.983 53.5334 120.953 53.5628L116.907 57.6095L122.267 64.1776C122.321 64.2447 122.311 64.3436 122.245 64.3984C122.216 64.4213 122.181 64.4337 122.145 64.4337L120.27 64.4305C120.176 64.4303 120.088 64.3888 120.029 64.3171L115.573 58.943L114.945 59.5706V64.1166C114.945 64.2898 114.805 64.4303 114.632 64.4303H113.376C113.203 64.4303 113.062 64.2898 113.062 64.1166V49.0589C113.062 48.8856 113.203 48.7451 113.376 48.7451H114.632C114.805 48.7451 114.945 48.8856 114.945 49.0589V56.9685Z" stroke="#0A0B1E" stroke-width="0.350643" stroke-linejoin="round"/>
<path d="M110.381 54.7184L110.321 54.6534C109.326 53.6196 107.953 52.9805 106.436 52.9805C104.878 52.9805 103.471 53.6137 102.47 54.6785C101.512 55.7023 100.936 57.1148 100.936 58.707C100.936 62.0266 103.398 64.4336 106.436 64.4336C107.947 64.4336 109.315 63.7994 110.309 62.7729L110.305 62.7688L110.374 62.6959C110.49 62.5737 110.488 62.3821 110.371 62.2616L109.496 61.3622C109.379 61.2411 109.187 61.2362 109.063 61.3493C108.396 62.0947 107.454 62.5509 106.436 62.5509C104.424 62.5509 102.818 60.973 102.818 58.707C102.818 56.441 104.424 54.8632 106.436 54.8632C107.457 54.8632 108.401 55.322 109.069 56.0712C109.194 56.1778 109.381 56.1704 109.498 56.0511L110.374 55.1491C110.491 55.0299 110.493 54.841 110.381 54.7184Z" stroke="#0A0B1E" stroke-width="0.350643" stroke-linejoin="round"/>
<path d="M88.258 58.707C88.258 55.4733 90.637 52.9805 93.758 52.9805C96.765 52.9805 99.159 55.472 99.256 58.5155C99.235 58.6681 99.103 58.7855 98.945 58.7855H91.74C91.567 58.7855 91.426 58.645 91.426 58.4717V57.6872C91.426 57.5139 91.567 57.3734 91.74 57.3734H97.154C96.638 55.887 95.284 54.8632 93.758 54.8632C91.747 54.8632 90.141 56.441 90.141 58.707C90.141 60.973 91.747 62.5509 93.758 62.5509C94.777 62.5509 95.718 62.0947 96.386 61.3493C96.509 61.2362 96.701 61.2411 96.819 61.3622L97.694 62.2616C97.811 62.3821 97.812 62.5737 97.697 62.6959L97.628 62.7688L97.632 62.773C96.642 63.7964 95.279 64.4336 93.758 64.4336C90.637 64.4336 88.258 61.9408 88.258 58.707Z" stroke="#0A0B1E" stroke-width="0.350643" stroke-linejoin="round"/>
<path fill-rule="evenodd" clip-rule="evenodd" d="M18.81 45.6675H23.3279C23.7361 45.6675 24.0671 45.9984 24.0671 46.4066V48.2545C24.0671 48.6627 23.7361 48.9936 23.3279 48.9936H21.2972C20.624 47.7705 19.7848 46.6517 18.81 45.6675ZM15.8571 48.9936H8.1757C7.7675 48.9936 7.4366 48.6627 7.4366 48.2545V46.4066C7.4366 45.9984 7.7675 45.6675 8.1757 45.6675C11.205 45.6675 13.9356 46.9463 15.8571 48.9936ZM15.8571 63.4067C13.9356 65.454 11.205 66.7328 8.1757 66.7328C7.7675 66.7328 7.4366 66.4019 7.4366 65.9937V64.1458C7.4366 63.7376 7.7675 63.4067 8.1757 63.4067H15.8571ZM21.2972 63.4067H23.3279C23.7361 63.4067 24.0671 63.7376 24.0671 64.1458V65.9937C24.0671 66.4019 23.7361 66.7328 23.3279 66.7328H18.81C19.7848 65.7486 20.624 64.6298 21.2972 63.4067ZM18.3398 58.9719C18.0109 60.181 17.472 61.3035 16.7647 62.298H8.1757C7.7675 62.298 7.4366 61.9671 7.4366 61.5589V59.711C7.4366 59.3028 7.7675 58.9719 8.1757 58.9719H18.3398ZM22.887 58.9719H23.3279C23.7361 58.9719 24.0671 59.3028 24.0671 59.711V61.5589C24.0671 61.9671 23.7361 62.298 23.3279 62.298H21.8487C22.3179 61.2477 22.6695 60.1334 22.887 58.9719ZM18.5778 54.5371C18.6637 55.0788 18.7084 55.6343 18.7084 56.2002C18.7084 56.766 18.6637 57.3215 18.5778 57.8632H8.1757C7.7675 57.8632 7.4366 57.5323 7.4366 57.1241V55.2763C7.4366 54.868 7.7675 54.5371 8.1757 54.5371H18.5778ZM23.0518 54.5371H23.3279C23.7361 54.5371 24.0671 54.868 24.0671 55.2763V57.1241C24.0671 57.5323 23.7361 57.8632 23.3279 57.8632H23.0518C23.1121 57.3172 23.1431 56.7623 23.1431 56.2002C23.1431 55.638 23.1121 55.0831 23.0518 54.5371ZM16.7647 50.1023C17.472 51.0968 18.0109 52.2193 18.3398 53.4284H8.1141C7.7059 53.4284 7.375 53.0975 7.375 52.6893V50.8415C7.375 50.4332 7.7059 50.1023 8.1141 50.1023H16.7647ZM21.8487 50.1023H23.2663C23.6745 50.1023 24.0055 50.4332 24.0055 50.8415V52.6893C24.0055 53.0975 23.6745 53.4284 23.2663 53.4284H22.887C22.6695 52.2669 22.3179 51.1526 21.8487 50.1023Z" fill="#0A0B1E"/>
<path fill-rule="evenodd" clip-rule="evenodd" d="M8.11509 75.6028C-2.60051 75.6028 -11.2871 66.9162 -11.2871 56.2006C-11.2871 45.485 -2.60051 36.7983 8.11509 36.7983C18.8307 36.7983 27.5174 45.485 27.5174 56.2006C27.5174 66.9162 18.8307 75.6028 8.11509 75.6028ZM8.11509 71.168C16.3814 71.168 23.0826 64.4669 23.0826 56.2006C23.0826 47.9343 16.3814 41.2331 8.11509 41.2331C-0.151207 41.2331 -6.85231 47.9343 -6.85231 56.2006C-6.85231 64.4669 -0.151207 71.168 8.11509 71.168Z" fill="#0A0B1E"/>
</g>
</svg>
