<svg width="174" height="113" viewBox="0 0 174 113" fill="none" xmlns="http://www.w3.org/2000/svg">
<path fill-rule="evenodd" clip-rule="evenodd" d="M80.0785 54.3309L74.3296 43.3154H66.3693L80.0785 69.4464L93.7465 43.3154H85.8274L80.0785 54.3309ZM130.17 49.1449L141.347 68.8439H132.743L131.376 66.1096H121.647L120.32 68.8439H111.718L126.511 42.6723L130.17 49.1449ZM130.17 45.1651C130.491 45.1651 130.773 45.0444 130.974 44.8035C131.216 44.5621 131.336 44.2806 131.336 43.959C131.336 43.6375 131.216 43.396 130.974 43.1552C130.773 42.9137 130.491 42.793 130.17 42.793C129.848 42.793 129.567 42.9137 129.326 43.1552C129.084 43.3966 129.004 43.6375 129.004 43.959C129.004 44.2806 129.125 44.5621 129.326 44.8035C129.567 45.0444 129.848 45.1651 130.17 45.1651ZM130.17 42.5515C129.809 42.5515 129.446 42.6723 129.206 42.9538C128.884 43.1946 128.762 43.5568 128.762 43.9584C128.762 44.3607 128.884 44.7223 129.165 44.9631C129.445 45.2446 129.768 45.4054 130.17 45.4054C130.531 45.4054 130.893 45.2446 131.174 45.0032C131.456 44.7223 131.576 44.3601 131.576 43.9579C131.576 43.5963 131.456 43.2341 131.174 42.9532C130.894 42.6723 130.571 42.5515 130.17 42.5515ZM130.17 44.1999C130.21 44.1999 130.251 44.2405 130.291 44.2405C130.331 44.2405 130.371 44.2806 130.371 44.3612C130.412 44.4013 130.412 44.4413 130.412 44.5621C130.412 44.6427 130.412 44.7228 130.451 44.7629H130.813V44.7228V44.6828V44.482C130.813 44.3212 130.773 44.2005 130.652 44.1204C130.613 44.0803 130.532 44.0803 130.451 44.0397C130.557 44.0352 130.657 43.9922 130.732 43.919C130.773 43.8789 130.813 43.7982 130.813 43.6375C130.813 43.4767 130.773 43.356 130.612 43.2753C130.512 43.225 130.402 43.1975 130.29 43.1946H129.526V44.7629H129.968V44.1999H130.17ZM130.17 43.4767H129.968V43.919H130.17C130.25 43.919 130.29 43.8789 130.331 43.8789C130.411 43.8389 130.411 43.7582 130.411 43.6781C130.411 43.5974 130.371 43.5173 130.29 43.5173C130.251 43.4767 130.21 43.4767 130.17 43.4767ZM126.511 56.5817L124.059 61.3259H128.964L126.511 56.5817ZM64.8016 68.8439V43.3159H57.3643V68.8439H64.8016ZM111.034 50.1502V43.3159H95.3141V68.8439H111.034V62.0503H102.793V58.7129H111.034V53.3662H102.793V50.1502H111.034ZM52.9416 43.3159H45.5043V53.2455L32.7598 41.667V68.8439H40.1971V59.3554L52.941 70.7337L52.9416 43.3159Z" fill="black"/>
</svg>
