<svg width="162" height="113" viewBox="0 0 162 113" fill="none" xmlns="http://www.w3.org/2000/svg">
<path d="M117.83 48.6165C125.004 48.6165 129.743 53.6504 129.743 61.2587C129.743 68.8671 124.988 73.9502 117.83 73.9502C110.38 73.9502 105.413 68.8671 105.413 61.2587C105.413 53.6504 110.396 48.6165 117.83 48.6165ZM79.5726 49.1248V73.4255L74.2163 72.3105V50.1906L79.5726 49.1248ZM101.03 48.5509V54.2571L97.9464 54.831C95.3007 55.3393 93.5802 56.7331 93.5802 59.8322V73.4255L88.2239 72.3105V59.0123C88.2239 52.4042 92.0545 50.453 97.9464 49.0756L101.03 48.5509ZM44.0748 48.6165C46.1849 48.6165 48.7494 49.7971 50.2102 51.9287C51.6711 49.9938 54.1057 48.7149 57.1085 48.6821C60.8742 48.6329 65.565 51.0269 65.565 58.2089V73.4255L60.2087 72.3105V58.2089C60.2087 55.7985 58.4882 54.0768 55.9399 54.0768C53.3916 54.0768 51.6711 55.7985 51.6711 58.2089V73.4255L46.3147 72.3105V58.2089C46.3147 55.7985 44.5942 54.0768 42.0459 54.0768C39.4651 54.0768 37.7284 55.7985 37.7284 58.2089V73.4255L32.3721 72.3105V50.1906L37.7284 49.1248V51.6336C39.2217 49.7807 41.494 48.6165 44.0748 48.6165ZM117.83 53.7488C113.675 53.7488 110.883 56.7331 110.883 61.2587C110.883 65.7844 113.675 68.8179 117.83 68.8179C121.709 68.8179 124.274 65.7844 124.274 61.2587C124.274 56.7331 121.709 53.7488 117.83 53.7488ZM77.0081 38.4502C78.9558 38.4502 80.2543 39.8276 80.2543 41.8936C80.2543 43.9597 78.9558 45.337 77.0081 45.337C74.9792 45.337 73.632 43.9597 73.632 41.8936C73.632 39.8276 74.9792 38.4502 77.0081 38.4502Z" fill="#0A0B1E"/>
</svg>
