<svg width="230" height="113" viewBox="0 0 230 113" fill="none" xmlns="http://www.w3.org/2000/svg">
<mask id="mask0_1_76" style="mask-type:luminance" maskUnits="userSpaceOnUse" x="32" y="45" width="166" height="22">
<path d="M197.709 45.9604H32.7715V66.4394H197.709V45.9604Z" fill="white"/>
</mask>
<g mask="url(#mask0_1_76)">
<path d="M82.8633 57.3054H89.0303V54.2801H82.8633V49.4512H89.4957V46.3096H78.6162V66.0904H89.6121V63.1233H82.8633V57.3054Z" fill="#0A0B1E"/>
<path d="M71.2859 46.3096H63.7227V66.0904H67.9697V58.0617H70.9369C74.6021 58.0617 76.4639 56.1418 76.4639 52.2438C76.4639 48.2877 74.7185 46.3096 71.2859 46.3096ZM70.1805 55.0946H67.9697V49.4512H70.006C71.4605 49.4512 72.2168 50.4403 72.2168 52.4184C72.2168 54.2219 71.5186 55.0946 70.1805 55.0946Z" fill="#0A0B1E"/>
<path d="M100.608 56.316C103.11 55.9087 104.39 54.2797 104.39 51.4289C104.39 47.9964 102.819 46.251 99.6775 46.251H92.1143V66.0318H96.1868V57.8868H97.2922C99.1539 57.8868 100.143 58.8758 100.259 60.8539C100.376 63.9956 100.492 65.741 100.55 66.0318H104.623C104.332 65.3919 104.157 63.472 104.157 60.2139C104.274 57.945 103.052 56.665 100.608 56.316ZM98.1067 54.9197H96.245V49.4508H98.1067C99.4448 49.4508 100.143 50.2653 100.143 51.9525C100.143 53.9306 99.503 54.9197 98.1067 54.9197Z" fill="#0A0B1E"/>
<path d="M54.7637 54.6292L51.7966 46.3096H47.375L52.5529 59.1671V66.0904H56.6836V59.1671L62.1525 46.3096H57.9054L54.7637 54.6292Z" fill="#0A0B1E"/>
<path d="M153.9 46.3096L148.373 66.0904H152.446L153.551 61.6688H159.194L160.3 66.0904H164.721L159.369 46.3096H153.9ZM154.482 58.7017L156.344 50.2076L158.38 58.7017H154.482Z" fill="#0A0B1E"/>
<path d="M177.462 59.9816L172.226 46.3096H166.583V66.0904H170.539V51.6039L175.892 66.0904H181.36V46.3096H177.462V59.9816Z" fill="#0A0B1E"/>
<path d="M191.425 46.3096H184.502V66.0904H191.251C195.556 66.0904 197.709 62.7161 197.709 56.0255C197.709 49.5094 195.614 46.3096 191.425 46.3096ZM190.611 63.1233H188.574V49.4512H190.785C192.647 49.4512 193.636 51.7202 193.636 56.2C193.636 60.7962 192.647 63.1233 190.611 63.1233Z" fill="#0A0B1E"/>
<path d="M130.222 54.9199C127.429 53.3491 126.033 52.0692 126.033 51.0219C126.033 49.6838 126.789 48.9857 128.244 48.9857C129.523 48.9857 130.105 49.9748 130.105 51.9529H134.061C134.352 47.9967 132.491 45.9604 128.418 45.9604C124.113 45.9604 121.96 47.8221 121.96 51.6037C121.96 53.6982 123.298 55.56 126.033 57.2472C128.767 58.9344 130.105 60.2143 130.105 61.2034C130.105 62.6577 129.407 63.4142 128.069 63.4142C126.498 63.4142 125.742 62.2505 125.742 59.9815H121.669C121.378 64.2867 123.298 66.4395 127.487 66.4395C132.083 66.4395 134.411 64.5777 134.411 60.7961C134.411 58.4108 133.014 56.4908 130.222 54.9199Z" fill="#0A0B1E"/>
<path d="M140.985 46.3096H136.912V66.0904H147.268V62.7742H140.985V46.3096Z" fill="#0A0B1E"/>
<path d="M119.167 46.3096H115.095V66.0904H119.167V46.3096Z" fill="#0A0B1E"/>
<path d="M41.5565 54.2801H36.844V46.3096H32.7715V66.0904H36.844V57.3054H41.5565V66.0904H45.6872V46.3096H41.5565V54.2801Z" fill="#0A0B1E"/>
</g>
</svg>
