<svg width="202" height="113" viewBox="0 0 202 113" fill="none" xmlns="http://www.w3.org/2000/svg">
<path d="M75.9419 52.738H62.9275C62.174 52.738 61.6261 53.4914 61.8772 54.1992L65.0053 62.3047C65.1423 62.67 64.8683 63.0582 64.4801 63.0353L60.4845 62.7842C60.3018 62.7614 60.1191 62.8527 60.0278 63.0125L56.9226 67.4192C56.7628 67.6703 56.4203 67.7616 56.1691 67.579L51.557 64.451C51.3743 64.3368 51.1232 64.3368 50.9634 64.451L44.5703 68.7663C44.1593 69.0403 43.6113 68.6521 43.7483 68.1726L45.5293 61.8252C45.5978 61.5512 45.4836 61.3001 45.2096 61.1859L41.8304 59.816C41.4879 59.679 41.3966 59.268 41.6249 58.994L44.5931 55.2952C44.7301 55.1125 44.753 54.8614 44.616 54.6559L42.1044 51.0255C41.8761 50.683 42.0816 50.2264 42.5154 50.2036L46.4197 49.9067C46.6937 49.8839 46.922 49.6328 46.922 49.3359L46.6024 43.879C46.5796 43.4909 46.9677 43.2169 47.3559 43.3539L52.1963 45.3631C52.4018 45.4544 52.653 45.4088 52.79 45.2261L56.1235 41.5044C56.3975 41.2076 56.8769 41.299 57.0368 41.6414L59.046 46.8015C59.32 47.4409 60.1191 47.6692 60.6671 47.2354L68.4986 41.4131C69.3891 40.751 68.8183 39.3354 67.7223 39.4952L62.5622 40.1802C62.311 40.2258 62.0827 40.066 61.9914 39.8377L59.2743 32.8738C58.9775 32.1432 58.0414 31.9605 57.4934 32.5542L51.6027 38.9472C51.4428 39.107 51.2145 39.1527 51.009 39.0614L43.246 35.7964C42.5611 35.5224 41.7848 36.0018 41.7619 36.7553L41.4879 44.7695C41.4651 45.0435 41.2596 45.2718 40.9856 45.2718L33.9076 45.7284C33.0856 45.7741 32.629 46.7102 33.0856 47.3952L37.7891 54.3362C37.9261 54.5417 37.9033 54.7929 37.7434 54.9984L32.9715 60.4781C32.492 61.0261 32.6975 61.8709 33.3596 62.1677L38.8394 64.5423C39.0905 64.6564 39.2047 64.9076 39.1362 65.1588L35.62 78.8582C35.3689 79.84 36.4648 80.5706 37.2868 79.9998L50.4611 70.5472C50.6437 70.433 50.8949 70.4102 51.0775 70.5472L57.0824 74.7712C57.5847 75.1365 58.2469 74.9767 58.5894 74.4972L62.3339 68.7434C62.448 68.5608 62.6535 68.4694 62.8362 68.5151L71.8093 69.5882C72.5399 69.7024 73.2706 69.0859 72.9966 68.4238L69.2521 58.7657C69.1379 58.4917 69.2521 58.2177 69.5717 58.0579L76.3986 54.8385C77.4489 54.2906 77.0836 52.738 75.9419 52.738Z" fill="#8039E9"/>
<path d="M169.304 52.7376H159.189C158.983 52.7376 158.824 52.8974 158.824 53.1029V57.5781C158.824 57.7836 158.983 57.9434 159.189 57.9434H163.504C163.71 57.9434 163.869 58.1032 163.869 58.3087C163.824 60.6148 163.367 64.7474 159.166 64.7474C155.741 64.7474 154.394 60.6148 154.394 55.7972C154.394 50.0662 155.81 46.5272 158.983 46.5272C161.289 46.5272 162.043 48.468 162.248 49.1986C162.294 49.3584 162.454 49.4726 162.614 49.4726H167.865C168.071 49.4726 168.253 49.2899 168.23 49.0844C168.025 46.2076 165.559 41.1845 159.075 41.1845C154.531 41.1845 150.284 43.9472 148.937 50.774V41.9836C148.937 41.8694 148.846 41.8009 148.754 41.8009H143.183C143.069 41.8009 143.001 41.8923 143.001 41.9836V57.6694C143.001 57.8749 142.727 57.9206 142.635 57.7379L135.329 41.8923C135.283 41.8238 135.238 41.7781 135.169 41.7781H130.237C130.123 41.7781 130.055 41.8694 130.055 41.9608V50.7512C128.228 45.1801 123.274 41.1616 116.835 41.1616C109.643 41.1616 104.323 46.1391 103.09 52.7376H93.0207C92.9065 52.7376 92.838 52.829 92.838 52.9203V57.7607C92.838 57.8749 92.9294 57.9434 93.0207 57.9434H97.7242C97.8383 57.9434 97.9068 58.0347 97.9068 58.1261C97.884 60.3636 97.4958 64.7474 93.2033 64.7474C89.7785 64.7474 88.4314 60.6148 88.4314 55.7972C88.4314 50.0662 89.847 46.5272 93.0207 46.5272C95.4638 46.5272 96.1716 48.742 96.3314 49.3356C96.3542 49.4269 96.4227 49.4726 96.514 49.4726H102.154C102.268 49.4726 102.359 49.3813 102.336 49.2671C102.222 46.4359 99.8019 41.1845 93.1577 41.1845C87.6551 41.1845 82.5635 45.2486 82.5635 55.7515C82.5635 62.9665 85.3947 70.113 93.249 70.113C99.0484 70.113 102.77 65.6151 103.592 60.2038C105.35 65.9576 110.35 70.113 116.926 70.113C123.274 70.113 128.32 66.0946 130.146 60.4778V69.3596C130.146 69.4737 130.237 69.5422 130.329 69.5422H135.9C136.014 69.5422 136.083 69.4509 136.083 69.3596V53.9249C136.083 53.7194 136.356 53.6738 136.448 53.8564L143.754 69.4509C143.8 69.5194 143.846 69.5651 143.914 69.5651H148.846C148.96 69.5651 149.028 69.4737 149.028 69.3824V60.5691C150.102 65.8662 153.161 70.1587 159.234 70.1587C165.856 70.1587 169.76 64.3365 169.76 57.9662V53.1943C169.669 52.8974 169.509 52.7376 169.304 52.7376ZM116.88 64.3365C112.2 64.3365 108.958 60.7518 108.958 55.6602C108.958 50.5686 112.2 46.9839 116.88 46.9839C121.538 46.9839 124.803 50.5686 124.803 55.6602C124.803 60.7518 121.538 64.3365 116.88 64.3365Z" fill="#3E0075"/>
</svg>
