<svg width="234" height="113" viewBox="0 0 234 113" fill="none" xmlns="http://www.w3.org/2000/svg">
<path d="M60.9311 54.7262C60.387 53.544 60.1051 52.9307 59.7242 52.0106C59.373 52.9307 59.2543 53.2126 58.5915 54.7954L57.2955 57.9809H62.3953L60.9311 54.7262ZM55.8314 61.9232L54.0111 65.9397H48.6937L57.9534 46.436H62.4398L71.6945 65.9397H66.4563L64.4777 61.9232H55.8314ZM84.941 54.8894C86.0242 54.8894 86.4743 54.8202 86.9195 54.5828C87.2676 54.3818 87.5574 54.0937 87.7603 53.7468C87.9633 53.3999 88.0724 53.0061 88.077 52.6042C88.0705 52.2027 87.9605 51.8097 87.7578 51.4631C87.555 51.1165 87.2663 50.828 86.9195 50.6256C86.4941 50.3882 86.044 50.3387 84.941 50.3387H78.4463V54.8499L84.941 54.8894ZM78.4463 65.9397H73.5593V46.436H86.2864C88.5518 46.436 89.7785 46.7229 90.936 47.4253C91.6711 47.8915 92.2755 48.537 92.6926 49.301C93.1096 50.065 93.3256 50.9226 93.3202 51.793C93.3202 54.1079 92.1182 55.8292 89.922 56.7394C91.856 57.4269 92.4496 58.5102 92.4941 61.5572C92.5881 63.9908 92.7315 64.6981 93.3202 65.9496H87.9385C87.5823 64.8614 87.5131 64.4162 87.5626 62.5465C87.5626 59.7171 86.781 58.8416 84.2781 58.8416H78.4463V65.9397ZM116.173 65.9397V46.436H134.019V50.3931H121.06V54.0535H132.511V58.0106H121.06V62.0271H134.019V65.9842L116.173 65.9397ZM148.186 65.9397H143.299V50.3783H136.547V46.4212H154.913V50.3783H148.186V65.9397ZM178.853 58.3123C177.458 63.8622 173.66 66.647 167.358 66.647C160.181 66.647 155.645 62.6553 155.645 56.3783C155.645 49.948 160.319 45.7534 167.472 45.7534C170.9 45.7534 173.59 46.6487 175.712 48.563C177.155 49.7632 178.16 51.4066 178.571 53.2373H173.303C172.314 50.7641 170.38 49.5523 167.452 49.5523C163.529 49.5523 160.819 52.3173 160.819 56.2843C160.819 60.1524 163.51 62.8482 167.358 62.8482C170.474 62.8482 172.339 61.4533 173.472 58.3123H178.853ZM196.255 46.436V54.0386H186.204V46.436H181.317V65.9397H186.204V57.9809H196.24V65.9397H201.122V46.436H196.255ZM32.8652 65.9397V46.436H49.9798V50.3931H37.7523V54.0535H48.9658V58.0106H37.7523V65.9397H32.8652ZM96.5304 65.9397V46.436H113.65V50.3931H101.417V54.0535H112.656V58.0106H101.417V65.9397H96.5304Z" fill="black"/>
</svg>
