<svg width="625" height="625" viewBox="0 0 625 625" fill="none" xmlns="http://www.w3.org/2000/svg">
<rect width="625" height="625" rx="312.5" fill="#F4F4F4"/>
<rect x="77.89" y="13.3601" width="533.75" height="533.75" rx="266.875" fill="#EEEEEE"/>
<g filter="url(#filter0_d_1_748)">
<rect x="150.77" y="462.23" width="12" height="12" rx="6" fill="#1B76FF"/>
</g>
<path d="M173.713 432.12C173.619 431.813 173.488 431.538 173.321 431.296C173.158 431.05 172.961 430.839 172.73 430.665C172.503 430.491 172.242 430.36 171.946 430.273C171.651 430.182 171.329 430.137 170.98 430.137C170.355 430.137 169.798 430.294 169.31 430.608C168.821 430.923 168.437 431.385 168.156 431.995C167.88 432.601 167.742 433.339 167.742 434.21C167.742 435.089 167.88 435.834 168.156 436.443C168.433 437.053 168.817 437.517 169.31 437.835C169.802 438.15 170.374 438.307 171.026 438.307C171.617 438.307 172.128 438.193 172.56 437.966C172.995 437.739 173.331 437.417 173.565 437C173.8 436.58 173.918 436.087 173.918 435.523L174.395 435.597H171.236V433.949H175.958V435.347C175.958 436.343 175.745 437.205 175.321 437.932C174.897 438.659 174.314 439.22 173.571 439.614C172.829 440.004 171.976 440.199 171.014 440.199C169.942 440.199 169.001 439.959 168.19 439.478C167.384 438.993 166.753 438.305 166.298 437.415C165.848 436.521 165.622 435.46 165.622 434.233C165.622 433.294 165.755 432.455 166.02 431.716C166.289 430.978 166.664 430.351 167.145 429.835C167.626 429.317 168.19 428.923 168.838 428.654C169.486 428.381 170.19 428.245 170.952 428.245C171.596 428.245 172.196 428.339 172.753 428.529C173.31 428.714 173.804 428.979 174.236 429.324C174.672 429.669 175.029 430.078 175.31 430.551C175.59 431.025 175.774 431.548 175.861 432.12H173.713ZM177.745 440.04V431.313H179.739V432.767H179.83C179.989 432.264 180.262 431.875 180.648 431.603C181.039 431.326 181.484 431.188 181.984 431.188C182.097 431.188 182.224 431.193 182.364 431.205C182.508 431.212 182.628 431.226 182.722 431.245V433.137C182.635 433.106 182.497 433.08 182.307 433.057C182.122 433.031 181.942 433.017 181.768 433.017C181.393 433.017 181.056 433.099 180.756 433.262C180.461 433.421 180.228 433.642 180.057 433.926C179.887 434.21 179.802 434.538 179.802 434.909V440.04H177.745ZM187.376 440.21C186.524 440.21 185.785 440.023 185.16 439.648C184.535 439.273 184.05 438.748 183.706 438.074C183.365 437.4 183.194 436.612 183.194 435.71C183.194 434.809 183.365 434.019 183.706 433.341C184.05 432.663 184.535 432.137 185.16 431.762C185.785 431.387 186.524 431.199 187.376 431.199C188.228 431.199 188.967 431.387 189.592 431.762C190.217 432.137 190.7 432.663 191.041 433.341C191.386 434.019 191.558 434.809 191.558 435.71C191.558 436.612 191.386 437.4 191.041 438.074C190.7 438.748 190.217 439.273 189.592 439.648C188.967 440.023 188.228 440.21 187.376 440.21ZM187.388 438.563C187.85 438.563 188.236 438.436 188.547 438.182C188.857 437.925 189.088 437.58 189.24 437.148C189.395 436.716 189.473 436.235 189.473 435.705C189.473 435.171 189.395 434.688 189.24 434.256C189.088 433.82 188.857 433.474 188.547 433.216C188.236 432.959 187.85 432.83 187.388 432.83C186.914 432.83 186.52 432.959 186.206 433.216C185.895 433.474 185.662 433.82 185.507 434.256C185.355 434.688 185.28 435.171 185.28 435.705C185.28 436.235 185.355 436.716 185.507 437.148C185.662 437.58 185.895 437.925 186.206 438.182C186.52 438.436 186.914 438.563 187.388 438.563ZM194.695 440.04L192.229 431.313H194.326L195.86 437.449H195.939L197.507 431.313H199.581L201.149 437.415H201.235L202.746 431.313H204.848L202.377 440.04H200.235L198.598 434.142H198.479L196.843 440.04H194.695ZM210.482 431.313V432.904H205.465V431.313H210.482ZM206.704 429.222H208.761V437.415C208.761 437.692 208.802 437.904 208.886 438.051C208.973 438.195 209.086 438.294 209.227 438.347C209.367 438.4 209.522 438.426 209.693 438.426C209.821 438.426 209.939 438.417 210.045 438.398C210.155 438.379 210.238 438.362 210.295 438.347L210.641 439.955C210.532 439.993 210.374 440.034 210.17 440.08C209.969 440.125 209.723 440.152 209.431 440.159C208.916 440.175 208.452 440.097 208.039 439.926C207.626 439.752 207.299 439.483 207.056 439.12C206.818 438.756 206.7 438.301 206.704 437.756V429.222ZM214.287 434.926V440.04H212.23V428.404H214.241V432.796H214.344C214.548 432.303 214.864 431.915 215.292 431.631C215.724 431.343 216.274 431.199 216.94 431.199C217.546 431.199 218.075 431.326 218.525 431.58C218.976 431.834 219.325 432.205 219.571 432.693C219.821 433.182 219.946 433.779 219.946 434.483V440.04H217.889V434.801C217.889 434.214 217.738 433.758 217.435 433.432C217.135 433.103 216.715 432.938 216.173 432.938C215.81 432.938 215.484 433.017 215.196 433.176C214.912 433.332 214.688 433.557 214.525 433.853C214.366 434.148 214.287 434.506 214.287 434.926Z" fill="black"/>
<rect x="169.97" y="29.1499" width="425.88" height="425.88" rx="212.94" fill="#E1E1E1"/>
<g filter="url(#filter1_d_1_748)">
<rect x="227.05" y="385.95" width="12" height="12" rx="6" fill="#1B76FF"/>
</g>
<path d="M244.306 352.124V363.76H242.198V352.124H244.306ZM248.394 358.646V363.76H246.337V355.033H248.303V356.516H248.406C248.606 356.027 248.926 355.639 249.366 355.351C249.809 355.063 250.356 354.919 251.008 354.919C251.61 354.919 252.135 355.048 252.582 355.305C253.033 355.563 253.381 355.936 253.627 356.425C253.877 356.913 254 357.506 253.997 358.203V363.76H251.94V358.521C251.94 357.938 251.788 357.482 251.485 357.152C251.186 356.823 250.771 356.658 250.241 356.658C249.881 356.658 249.561 356.737 249.281 356.896C249.004 357.052 248.786 357.277 248.627 357.573C248.472 357.868 248.394 358.226 248.394 358.646ZM262.825 357.34L260.95 357.544C260.897 357.355 260.804 357.177 260.672 357.01C260.543 356.843 260.369 356.709 260.149 356.607C259.929 356.504 259.66 356.453 259.342 356.453C258.914 356.453 258.554 356.546 258.263 356.732C257.975 356.917 257.833 357.158 257.837 357.453C257.833 357.707 257.926 357.913 258.115 358.073C258.308 358.232 258.626 358.362 259.069 358.465L260.558 358.783C261.384 358.961 261.998 359.243 262.399 359.629C262.804 360.016 263.009 360.521 263.013 361.146C263.009 361.696 262.848 362.18 262.53 362.601C262.215 363.018 261.778 363.343 261.217 363.578C260.657 363.813 260.013 363.93 259.285 363.93C258.217 363.93 257.357 363.707 256.706 363.26C256.054 362.809 255.666 362.182 255.541 361.379L257.547 361.186C257.638 361.58 257.831 361.877 258.126 362.078C258.422 362.279 258.806 362.379 259.28 362.379C259.768 362.379 260.16 362.279 260.456 362.078C260.755 361.877 260.905 361.629 260.905 361.334C260.905 361.084 260.808 360.877 260.615 360.715C260.426 360.552 260.13 360.427 259.729 360.34L258.24 360.027C257.403 359.853 256.784 359.559 256.382 359.146C255.98 358.73 255.782 358.203 255.785 357.567C255.782 357.029 255.927 356.563 256.223 356.169C256.522 355.771 256.937 355.465 257.467 355.249C258.001 355.029 258.617 354.919 259.314 354.919C260.337 354.919 261.141 355.137 261.729 355.573C262.319 356.008 262.685 356.597 262.825 357.34ZM264.549 363.76V355.033H266.606V363.76H264.549ZM265.583 353.794C265.257 353.794 264.977 353.686 264.742 353.47C264.507 353.251 264.39 352.987 264.39 352.68C264.39 352.37 264.507 352.107 264.742 351.891C264.977 351.671 265.257 351.561 265.583 351.561C265.912 351.561 266.193 351.671 266.424 351.891C266.659 352.107 266.776 352.37 266.776 352.68C266.776 352.987 266.659 353.251 266.424 353.47C266.193 353.686 265.912 353.794 265.583 353.794ZM272.356 367.215C271.617 367.215 270.983 367.114 270.453 366.913C269.922 366.716 269.496 366.451 269.174 366.118C268.852 365.785 268.629 365.415 268.504 365.01L270.356 364.561C270.439 364.732 270.561 364.9 270.72 365.067C270.879 365.237 271.093 365.377 271.362 365.487C271.634 365.601 271.977 365.658 272.39 365.658C272.973 365.658 273.456 365.516 273.839 365.232C274.222 364.951 274.413 364.489 274.413 363.845V362.192H274.311C274.205 362.404 274.049 362.622 273.845 362.845C273.644 363.069 273.377 363.256 273.044 363.408C272.714 363.559 272.299 363.635 271.799 363.635C271.129 363.635 270.521 363.478 269.975 363.163C269.434 362.845 269.002 362.372 268.68 361.743C268.362 361.11 268.203 360.319 268.203 359.368C268.203 358.41 268.362 357.601 268.68 356.942C269.002 356.279 269.436 355.777 269.981 355.436C270.526 355.091 271.134 354.919 271.805 354.919C272.316 354.919 272.737 355.006 273.066 355.18C273.4 355.351 273.665 355.557 273.862 355.8C274.059 356.038 274.208 356.264 274.311 356.476H274.424V355.033H276.453V363.902C276.453 364.648 276.275 365.266 275.919 365.754C275.562 366.243 275.076 366.608 274.458 366.851C273.841 367.093 273.14 367.215 272.356 367.215ZM272.373 362.021C272.809 362.021 273.18 361.915 273.487 361.703C273.794 361.491 274.026 361.186 274.186 360.788C274.345 360.391 274.424 359.913 274.424 359.357C274.424 358.807 274.345 358.326 274.186 357.913C274.03 357.501 273.799 357.18 273.492 356.953C273.189 356.722 272.816 356.607 272.373 356.607C271.915 356.607 271.532 356.726 271.225 356.965C270.919 357.203 270.687 357.531 270.532 357.948C270.377 358.36 270.299 358.83 270.299 359.357C270.299 359.891 270.377 360.358 270.532 360.76C270.691 361.158 270.924 361.468 271.231 361.692C271.542 361.912 271.922 362.021 272.373 362.021ZM280.457 358.646V363.76H278.401V352.124H280.412V356.516H280.514C280.719 356.023 281.035 355.635 281.463 355.351C281.895 355.063 282.444 354.919 283.111 354.919C283.717 354.919 284.245 355.046 284.696 355.3C285.147 355.554 285.495 355.925 285.741 356.413C285.991 356.902 286.116 357.499 286.116 358.203V363.76H284.06V358.521C284.06 357.934 283.908 357.478 283.605 357.152C283.306 356.823 282.885 356.658 282.344 356.658C281.98 356.658 281.654 356.737 281.366 356.896C281.082 357.052 280.859 357.277 280.696 357.573C280.537 357.868 280.457 358.226 280.457 358.646ZM292.411 355.033V356.624H287.394V355.033H292.411ZM288.633 352.942H290.689V361.135C290.689 361.412 290.731 361.624 290.814 361.771C290.902 361.915 291.015 362.014 291.155 362.067C291.295 362.12 291.451 362.146 291.621 362.146C291.75 362.146 291.867 362.137 291.974 362.118C292.083 362.099 292.167 362.082 292.224 362.067L292.57 363.675C292.46 363.713 292.303 363.754 292.099 363.8C291.898 363.845 291.652 363.872 291.36 363.879C290.845 363.894 290.381 363.817 289.968 363.646C289.555 363.472 289.227 363.203 288.985 362.84C288.746 362.476 288.629 362.021 288.633 361.476V352.942ZM300.744 357.34L298.869 357.544C298.816 357.355 298.723 357.177 298.591 357.01C298.462 356.843 298.287 356.709 298.068 356.607C297.848 356.504 297.579 356.453 297.261 356.453C296.833 356.453 296.473 356.546 296.181 356.732C295.894 356.917 295.752 357.158 295.755 357.453C295.752 357.707 295.844 357.913 296.034 358.073C296.227 358.232 296.545 358.362 296.988 358.465L298.477 358.783C299.303 358.961 299.916 359.243 300.318 359.629C300.723 360.016 300.928 360.521 300.931 361.146C300.928 361.696 300.767 362.18 300.448 362.601C300.134 363.018 299.697 363.343 299.136 363.578C298.575 363.813 297.931 363.93 297.204 363.93C296.136 363.93 295.276 363.707 294.625 363.26C293.973 362.809 293.585 362.182 293.46 361.379L295.466 361.186C295.556 361.58 295.75 361.877 296.045 362.078C296.341 362.279 296.725 362.379 297.198 362.379C297.687 362.379 298.079 362.279 298.375 362.078C298.674 361.877 298.823 361.629 298.823 361.334C298.823 361.084 298.727 360.877 298.534 360.715C298.344 360.552 298.049 360.427 297.647 360.34L296.159 360.027C295.322 359.853 294.702 359.559 294.301 359.146C293.899 358.73 293.7 358.203 293.704 357.567C293.7 357.029 293.846 356.563 294.142 356.169C294.441 355.771 294.856 355.465 295.386 355.249C295.92 355.029 296.536 354.919 297.233 354.919C298.255 354.919 299.06 355.137 299.647 355.573C300.238 356.008 300.604 356.597 300.744 357.34Z" fill="black"/>
<rect x="309.42" y="53.0801" width="262.5" height="262.5" rx="131.25" fill="#F4F4F4"/>
<g filter="url(#filter2_d_1_748)">
<rect x="526.78" y="86.22" width="12" height="12" rx="6" fill="#1B76FF"/>
</g>
<path d="M541.928 64.03V52.3937H546.291C547.185 52.3937 547.935 52.5603 548.541 52.8937C549.151 53.227 549.611 53.6853 549.922 54.2687C550.236 54.8482 550.394 55.5073 550.394 56.2459C550.394 56.9922 550.236 57.655 549.922 58.2346C549.608 58.8141 549.144 59.2706 548.53 59.6039C547.916 59.9334 547.161 60.0982 546.263 60.0982H543.371V58.3653H545.979C546.502 58.3653 546.93 58.2743 547.263 58.0925C547.596 57.9107 547.843 57.6607 548.002 57.3425C548.164 57.0243 548.246 56.6588 548.246 56.2459C548.246 55.8331 548.164 55.4694 548.002 55.155C547.843 54.8406 547.594 54.5963 547.257 54.4221C546.924 54.244 546.494 54.155 545.968 54.155H544.036V64.03H541.928ZM551.974 64.03V55.3028H553.968V56.7573H554.059C554.218 56.2535 554.491 55.8653 554.877 55.5925C555.267 55.316 555.712 55.1778 556.212 55.1778C556.326 55.1778 556.453 55.1834 556.593 55.1948C556.737 55.2024 556.856 55.2156 556.951 55.2346V57.1266C556.864 57.0963 556.726 57.0698 556.536 57.0471C556.351 57.0206 556.171 57.0073 555.996 57.0073C555.621 57.0073 555.284 57.0887 554.985 57.2516C554.69 57.4107 554.457 57.6323 554.286 57.9164C554.116 58.2005 554.031 58.5281 554.031 58.8993V64.03H551.974ZM561.605 64.2005C560.753 64.2005 560.014 64.013 559.389 63.638C558.764 63.263 558.279 62.7384 557.934 62.0641C557.594 61.3899 557.423 60.602 557.423 59.7005C557.423 58.799 557.594 58.0092 557.934 57.3312C558.279 56.6531 558.764 56.1266 559.389 55.7516C560.014 55.3766 560.753 55.1891 561.605 55.1891C562.457 55.1891 563.196 55.3766 563.821 55.7516C564.446 56.1266 564.929 56.6531 565.27 57.3312C565.614 58.0092 565.787 58.799 565.787 59.7005C565.787 60.602 565.614 61.3899 565.27 62.0641C564.929 62.7384 564.446 63.263 563.821 63.638C563.196 64.013 562.457 64.2005 561.605 64.2005ZM561.616 62.5528C562.078 62.5528 562.465 62.4259 562.775 62.1721C563.086 61.9145 563.317 61.5698 563.469 61.138C563.624 60.7062 563.701 60.2251 563.701 59.6948C563.701 59.1607 563.624 58.6778 563.469 58.2459C563.317 57.8103 563.086 57.4637 562.775 57.2062C562.465 56.9486 562.078 56.8198 561.616 56.8198C561.143 56.8198 560.749 56.9486 560.434 57.2062C560.124 57.4637 559.891 57.8103 559.736 58.2459C559.584 58.6778 559.508 59.1607 559.508 59.6948C559.508 60.2251 559.584 60.7062 559.736 61.138C559.891 61.5698 560.124 61.9145 560.434 62.1721C560.749 62.4259 561.143 62.5528 561.616 62.5528ZM570.611 64.1834C569.925 64.1834 569.312 64.0073 568.77 63.655C568.229 63.3028 567.8 62.7914 567.486 62.1209C567.172 61.4505 567.015 60.6361 567.015 59.6778C567.015 58.7081 567.174 57.8899 567.492 57.2232C567.814 56.5528 568.247 56.0471 568.793 55.7062C569.338 55.3615 569.946 55.1891 570.617 55.1891C571.128 55.1891 571.549 55.2762 571.878 55.4505C572.208 55.6209 572.469 55.8274 572.662 56.0698C572.855 56.3084 573.005 56.5338 573.111 56.7459H573.196V52.3937H575.259V64.03H573.236V62.655H573.111C573.005 62.8672 572.852 63.0925 572.651 63.3312C572.45 63.566 572.185 63.7668 571.855 63.9334C571.526 64.1001 571.111 64.1834 570.611 64.1834ZM571.185 62.4959C571.621 62.4959 571.992 62.3785 572.299 62.1437C572.605 61.905 572.838 61.5736 572.997 61.1493C573.157 60.7251 573.236 60.2308 573.236 59.6664C573.236 59.102 573.157 58.6115 572.997 58.1948C572.842 57.7781 572.611 57.4543 572.304 57.2232C572.001 56.9922 571.628 56.8766 571.185 56.8766C570.727 56.8766 570.344 56.9959 570.037 57.2346C569.73 57.4732 569.499 57.8028 569.344 58.2232C569.189 58.6437 569.111 59.1247 569.111 59.6664C569.111 60.2118 569.189 60.6986 569.344 61.1266C569.503 61.5509 569.736 61.8861 570.043 62.1323C570.354 62.3747 570.734 62.4959 571.185 62.4959ZM582.853 60.3596V55.3028H584.91V64.03H582.916V62.4789H582.825C582.628 62.9675 582.304 63.3672 581.853 63.6778C581.406 63.9884 580.855 64.1437 580.2 64.1437C579.628 64.1437 579.122 64.0168 578.683 63.763C578.247 63.5054 577.906 63.1323 577.66 62.6437C577.414 62.1512 577.291 61.5565 577.291 60.8596V55.3028H579.347V60.5414C579.347 61.0944 579.499 61.5338 579.802 61.8596C580.105 62.1853 580.503 62.3482 580.995 62.3482C581.298 62.3482 581.592 62.2743 581.876 62.1266C582.16 61.9789 582.393 61.7592 582.575 61.4675C582.76 61.1721 582.853 60.8028 582.853 60.3596ZM590.672 64.2005C589.801 64.2005 589.052 64.0092 588.427 63.6266C587.806 63.244 587.327 62.7156 586.99 62.0414C586.657 61.3634 586.49 60.5831 586.49 59.7005C586.49 58.8141 586.66 58.0319 587.001 57.3539C587.342 56.6721 587.823 56.1418 588.445 55.763C589.07 55.3804 589.808 55.1891 590.66 55.1891C591.369 55.1891 591.996 55.3198 592.541 55.5812C593.09 55.8387 593.528 56.2043 593.854 56.6778C594.179 57.1475 594.365 57.6967 594.41 58.3255H592.445C592.365 57.905 592.176 57.5547 591.876 57.2743C591.581 56.9903 591.185 56.8482 590.689 56.8482C590.268 56.8482 589.899 56.9618 589.581 57.1891C589.263 57.4126 589.015 57.7346 588.837 58.155C588.662 58.5755 588.575 59.0793 588.575 59.6664C588.575 60.2611 588.662 60.7725 588.837 61.2005C589.011 61.6247 589.255 61.9524 589.57 62.1834C589.888 62.4107 590.261 62.5243 590.689 62.5243C590.992 62.5243 591.263 62.4675 591.501 62.3539C591.744 62.2365 591.946 62.0679 592.109 61.8482C592.272 61.6285 592.384 61.3615 592.445 61.0471H594.41C594.361 61.6645 594.179 62.2118 593.865 62.6891C593.551 63.1626 593.123 63.5338 592.581 63.8028C592.039 64.0679 591.403 64.2005 590.672 64.2005ZM600.297 55.3028V56.8937H595.28V55.3028H600.297ZM596.519 53.2118H598.576V61.405C598.576 61.6815 598.617 61.8937 598.701 62.0414C598.788 62.1853 598.901 62.2838 599.042 62.3368C599.182 62.3899 599.337 62.4164 599.508 62.4164C599.636 62.4164 599.754 62.4069 599.86 62.388C599.97 62.369 600.053 62.352 600.11 62.3368L600.456 63.9448C600.347 63.9827 600.189 64.0243 599.985 64.0698C599.784 64.1153 599.538 64.1418 599.246 64.1493C598.731 64.1645 598.267 64.0868 597.854 63.9164C597.441 63.7422 597.114 63.4732 596.871 63.1096C596.633 62.7459 596.515 62.2914 596.519 61.7459V53.2118Z" fill="black"/>
<defs>
<filter id="filter0_d_1_748" x="138.77" y="450.23" width="36" height="36" filterUnits="userSpaceOnUse" color-interpolation-filters="sRGB">
<feFlood flood-opacity="0" result="BackgroundImageFix"/>
<feColorMatrix in="SourceAlpha" type="matrix" values="0 0 0 0 0 0 0 0 0 0 0 0 0 0 0 0 0 0 127 0" result="hardAlpha"/>
<feMorphology radius="12" operator="dilate" in="SourceAlpha" result="effect1_dropShadow_1_748"/>
<feOffset/>
<feComposite in2="hardAlpha" operator="out"/>
<feColorMatrix type="matrix" values="0 0 0 0 0 0 0 0 0 0 0 0 0 0 0 0 0 0 0.08 0"/>
<feBlend mode="normal" in2="BackgroundImageFix" result="effect1_dropShadow_1_748"/>
<feBlend mode="normal" in="SourceGraphic" in2="effect1_dropShadow_1_748" result="shape"/>
</filter>
<filter id="filter1_d_1_748" x="215.05" y="373.95" width="36" height="36" filterUnits="userSpaceOnUse" color-interpolation-filters="sRGB">
<feFlood flood-opacity="0" result="BackgroundImageFix"/>
<feColorMatrix in="SourceAlpha" type="matrix" values="0 0 0 0 0 0 0 0 0 0 0 0 0 0 0 0 0 0 127 0" result="hardAlpha"/>
<feMorphology radius="12" operator="dilate" in="SourceAlpha" result="effect1_dropShadow_1_748"/>
<feOffset/>
<feComposite in2="hardAlpha" operator="out"/>
<feColorMatrix type="matrix" values="0 0 0 0 0 0 0 0 0 0 0 0 0 0 0 0 0 0 0.08 0"/>
<feBlend mode="normal" in2="BackgroundImageFix" result="effect1_dropShadow_1_748"/>
<feBlend mode="normal" in="SourceGraphic" in2="effect1_dropShadow_1_748" result="shape"/>
</filter>
<filter id="filter2_d_1_748" x="514.78" y="74.22" width="36" height="36" filterUnits="userSpaceOnUse" color-interpolation-filters="sRGB">
<feFlood flood-opacity="0" result="BackgroundImageFix"/>
<feColorMatrix in="SourceAlpha" type="matrix" values="0 0 0 0 0 0 0 0 0 0 0 0 0 0 0 0 0 0 127 0" result="hardAlpha"/>
<feMorphology radius="12" operator="dilate" in="SourceAlpha" result="effect1_dropShadow_1_748"/>
<feOffset/>
<feComposite in2="hardAlpha" operator="out"/>
<feColorMatrix type="matrix" values="0 0 0 0 0 0 0 0 0 0 0 0 0 0 0 0 0 0 0.08 0"/>
<feBlend mode="normal" in2="BackgroundImageFix" result="effect1_dropShadow_1_748"/>
<feBlend mode="normal" in="SourceGraphic" in2="effect1_dropShadow_1_748" result="shape"/>
</filter>
</defs>
</svg>
