<svg width="1600" height="808" viewBox="0 0 1600 808" fill="none" xmlns="http://www.w3.org/2000/svg">
<g opacity="0.6" clip-path="url(#clip0_1_271)">
<path d="M1371.86 645.028L1371.54 644.541L1747.69 449.085L1748 449.572L1371.86 645.028Z" fill="#D1D1D1"/>
<path d="M1560.11 807.95L1183.97 612.494L1184.28 612.008L1560.42 807.463L1560.11 807.95Z" fill="#D1D1D1"/>
<path d="M918.961 637.415L623.113 483.763L623.391 483.33L919.239 636.982L918.961 637.415Z" fill="#D1D1D1"/>
<path d="M747.31 159.69L371.167 -35.7661L371.479 -36.2521L747.622 159.204L747.31 159.69Z" fill="#D1D1D1"/>
<path d="M127.792 481.25L127.523 480.831L403.541 337.404L403.81 337.823L127.792 481.25Z" fill="#D1D1D1"/>
<path d="M8.97323 478.1L8.70441 477.681L284.722 334.253L284.991 334.673L8.97323 478.1Z" fill="#D1D1D1"/>
<path d="M937.711 675.957L937.442 675.538L1213.46 532.111L1213.73 532.53L937.711 675.957Z" fill="#D1D1D1"/>
<path d="M684.94 321.747L684.701 321.375L904.321 207.254L904.56 207.625L684.94 321.747Z" fill="#D1D1D1"/>
<path d="M435.214 547.29L435.058 547.368L372.474 579.889V645.088L372.631 645.166L435.214 677.688L497.953 645.088V579.889L497.798 579.811L435.214 547.29ZM373.099 580.217L435.214 547.938L497.329 580.217V644.768L435.214 677.04L373.099 644.768V580.217Z" fill="#D1D1D1"/>
<path d="M684.923 482.42L684.767 482.498L622.183 515.019V580.218L622.34 580.296L684.923 612.817L685.079 612.739L747.662 580.218V515.019L747.507 514.941L684.923 482.42ZM622.808 515.339L684.923 483.06L747.039 515.339V579.89L684.923 612.17L622.808 579.89V515.339Z" fill="#D1D1D1"/>
<path d="M622.497 482.217L622.08 482.435L559.237 515.089V580.827L559.652 581.045L622.497 613.699L685.756 580.827V515.089L685.34 514.871L622.497 482.217ZM560.901 515.956L622.497 483.949L684.091 515.956V579.968L622.497 611.974L560.901 579.968V515.956Z" fill="#D1D1D1"/>
<path d="M809.769 580.085L809.613 580.163L747.03 612.684V677.883L747.186 677.961L809.769 710.482L872.509 677.883V612.684L872.353 612.606L809.769 580.085ZM747.654 613.004L809.769 580.725L871.884 613.004V677.555L809.769 709.835L747.654 677.555V613.004Z" fill="#D1D1D1"/>
<path d="M747.342 547.636L747.187 547.714L684.603 580.235V645.434L684.759 645.512L747.342 678.033L810.082 645.434V580.235L809.926 580.157L747.342 547.636ZM685.236 580.563L747.351 548.283L809.467 580.563V645.114L747.351 677.393L685.236 645.114V580.563Z" fill="#D1D1D1"/>
<path d="M435.214 514.668L434.798 514.887L371.954 547.541V613.278L435.214 646.15L498.474 613.278V547.541L498.058 547.322L435.214 514.668ZM373.619 548.407L435.214 516.401L496.809 548.407V612.419L435.214 644.418L373.619 612.412V548.407Z" fill="#D1D1D1"/>
<path d="M372.787 482.764L372.631 482.842L310.047 515.363V580.562L310.203 580.64L372.787 613.161L435.527 580.562V515.363L435.37 515.285L372.787 482.764ZM310.671 515.683L372.787 483.404L434.902 515.683V580.234L372.787 612.513L310.671 580.234V515.683Z" fill="#D1D1D1"/>
<path d="M560.069 515.206L559.912 515.284L497.329 547.805V613.004L497.486 613.082L560.069 645.604L622.808 613.004V547.805L622.652 547.727L560.069 515.206ZM497.953 548.133L560.069 515.862L622.183 548.133V612.684L560.069 644.964L497.953 612.684V548.133Z" fill="#D1D1D1"/>
<path d="M560.069 580.085L559.912 580.163L497.329 612.684V677.883L497.486 677.961L560.069 710.482L622.808 677.883V612.684L622.652 612.606L560.069 580.085ZM497.953 613.004L560.069 580.725L622.183 613.004V677.555L560.069 709.835L497.953 677.555V613.004Z" fill="#D1D1D1"/>
<path d="M872.197 -4.70612L871.781 -4.4881L808.937 28.1669V93.9039L809.353 94.1219L872.197 126.776L872.613 126.558L935.457 93.9039V28.1669L935.04 27.9479L872.197 -4.70612ZM810.602 29.0329L872.197 -2.97314L933.792 29.0329V93.0449L872.197 125.052L810.602 93.0449V29.0329Z" fill="#D1D1D1"/>
<path d="M809.769 -36.6089L809.613 -36.5309L747.03 -4.00995V61.1891L747.186 61.2671L809.769 93.7881L809.926 93.7101L872.509 61.1891V-4.00995L872.353 -4.08795L809.769 -36.6089ZM747.663 -3.68994L809.778 -35.9619L871.893 -3.68994V60.8611L809.778 93.1331L747.663 60.8611V-3.68994Z" fill="#D1D1D1"/>
<path d="M747.351 -4.16699L747.194 -4.08899L684.611 28.432V93.631L684.768 93.709L747.351 126.23L747.507 126.152L810.09 93.631V28.432L809.934 28.354L747.351 -4.16699ZM685.236 28.76L747.351 -3.51898L809.467 28.76V93.311L747.351 125.59L685.236 93.311V28.76Z" fill="#D1D1D1"/>
<path d="M747.35 60.1732L746.934 60.3912L684.091 93.0452V158.783L684.507 159.001L747.35 191.655L747.767 191.437L810.61 158.783V93.0452L810.194 92.8273L747.35 60.1732ZM685.755 93.9042L747.35 61.8983L808.946 93.9042V157.916L747.35 189.923L685.755 157.916V93.9042Z" fill="#D1D1D1"/>
<path d="M372.787 -35.915L372.631 -35.837L310.047 -3.31604V61.8829L310.203 61.9609L372.787 94.4819L372.943 94.4039L435.527 61.8829V-3.31604L435.37 -3.39404L372.787 -35.915ZM310.671 -2.99603L372.787 -35.2671L434.902 -2.99603V61.5549L372.787 93.827L310.671 61.5549V-2.99603Z" fill="#D1D1D1"/>
<path d="M310.359 -68.3668L310.203 -68.2888L247.62 -35.7678V29.4313L247.776 29.5092L310.359 62.0303L310.516 61.9523L373.099 29.4313V-35.7678L372.942 -35.8458L310.359 -68.3668ZM248.244 -35.4398L310.359 -67.7117L372.474 -35.4398V29.1113L310.359 61.3823L248.244 29.1113V-35.4398Z" fill="#D1D1D1"/>
<path d="M247.932 -35.915L247.776 -35.837L185.192 -3.31604V61.8829L185.349 61.9609L247.932 94.4819L248.088 94.4039L310.671 61.8829V-3.31604L310.516 -3.39404L247.932 -35.915ZM185.817 -2.99603L247.932 -35.2671L310.047 -2.99603V61.5549L247.932 93.835L185.817 61.5549V-2.99603Z" fill="#D1D1D1"/>
<path d="M247.932 28.956L247.776 29.034L185.192 61.555V126.754L185.349 126.832L247.932 159.354L248.088 159.275L310.671 126.754V61.555L310.516 61.477L247.932 28.956ZM185.817 61.883L247.932 29.604L310.047 61.883V126.434L247.932 158.714L185.817 126.434V61.883Z" fill="#D1D1D1"/>
<path d="M997.051 92.81L996.896 92.888L934.312 125.41V190.609L934.468 190.687L997.051 223.208L997.208 223.13L1059.79 190.609V125.41L1059.63 125.332L997.051 92.81ZM934.937 125.738L997.051 93.466L1059.17 125.738V190.289L997.051 222.56L934.937 190.289V125.738Z" fill="#D1D1D1"/>
<path d="M934.624 93.1548L934.468 93.2327L871.884 125.755V190.953L872.041 191.031L934.624 223.553L934.78 223.475L997.363 190.953V125.755L997.208 125.676L934.624 93.1548ZM872.509 126.082L934.624 93.8107L996.739 126.082V190.633L934.624 222.913L872.509 190.633V126.082Z" fill="#D1D1D1"/>
<path d="M1121.91 190.477L1121.74 190.555L1059.17 223.077V288.276L1059.32 288.354L1121.91 320.875L1122.07 320.797L1184.64 288.276V223.077L1184.49 222.999L1121.91 190.477ZM1059.79 223.405L1121.91 191.133L1184.02 223.405V287.956L1121.91 320.235L1059.79 287.956V223.405Z" fill="#D1D1D1"/>
<path d="M872.197 125.605L872.04 125.683L809.457 158.205V223.404L809.613 223.482L872.197 256.003L872.352 255.925L934.936 223.404V158.205L934.78 158.127L872.197 125.605ZM810.081 158.533L872.197 126.253L934.311 158.533V223.084L872.197 255.355L810.081 223.084V158.533Z" fill="#D1D1D1"/>
<path opacity="0.3" d="M1371.61 -4.70612L1371.19 -4.4881L1308.34 28.1669V93.9039L1308.77 94.1219L1371.61 126.776L1372.02 126.558L1434.87 93.9039V28.1669L1434.44 27.9479L1371.61 -4.70612ZM1310.01 29.0329L1371.61 -2.97314L1433.2 29.0329V93.0449L1371.61 125.052L1310.01 93.0449V29.0329Z" fill="#FFC300"/>
<path d="M1309.19 -36.6089L1309.03 -36.5309L1246.44 -4.00995V61.1891L1246.6 61.2671L1309.19 93.7881L1309.34 93.7101L1371.92 61.1891V-4.00995L1371.77 -4.08795L1309.19 -36.6089ZM1247.08 -3.68994L1309.19 -35.9619L1371.3 -3.68994V60.8611L1309.19 93.1331L1247.08 60.8611V-3.68994Z" fill="#D1D1D1"/>
<path d="M1496.46 92.81L1496.3 92.888L1433.72 125.41V190.609L1433.88 190.687L1496.46 223.208L1496.62 223.13L1559.2 190.609V125.41L1559.04 125.332L1496.46 92.81ZM1434.34 125.738L1496.46 93.466L1558.58 125.738V190.289L1496.46 222.56L1434.34 190.289V125.738Z" fill="#D1D1D1"/>
<path d="M1434.03 93.1548L1433.88 93.2327L1371.29 125.755V190.953L1371.44 191.031L1434.03 223.553L1434.19 223.475L1496.78 190.953V125.755L1496.61 125.676L1434.03 93.1548ZM1371.92 126.082L1434.03 93.8107L1496.14 126.082V190.633L1434.03 222.913L1371.92 190.633V126.082Z" fill="#D1D1D1"/>
<path d="M1371.61 125.605L1371.46 125.683L1308.87 158.205V223.404L1309.02 223.482L1371.61 256.003L1371.77 255.925L1434.34 223.404V158.205L1434.19 158.127L1371.61 125.605ZM1309.49 158.533L1371.61 126.253L1433.72 158.533V223.084L1371.61 255.355L1309.49 223.084V158.533Z" fill="#D1D1D1"/>
<path d="M872.197 190.477L872.04 190.555L809.457 223.077V288.276L809.613 288.354L872.197 320.875L872.352 320.797L934.936 288.276V223.077L934.78 222.999L872.197 190.477ZM810.081 223.405L872.197 191.133L934.311 223.405V287.956L872.197 320.235L810.081 287.956V223.405Z" fill="#D1D1D1"/>
<path d="M997.051 190.477L996.896 190.555L934.312 223.077V288.276L934.468 288.354L997.051 320.875L997.208 320.797L1059.79 288.276V223.077L1059.63 222.999L997.051 190.477ZM934.937 223.405L997.051 191.133L1059.17 223.405V287.956L997.051 320.235L934.937 287.956V223.405Z" fill="#D1D1D1"/>
<path opacity="0.34" d="M997.051 254.817L996.636 255.036L933.791 287.69V353.427L934.208 353.646L997.051 386.3L997.468 386.081L1060.31 353.427V287.69L1059.89 287.471L997.051 254.817ZM935.457 288.548L997.051 256.542L1058.65 288.548V352.561L997.051 384.567L935.457 352.561V288.548Z" fill="#1814E5"/>
<path d="M497.641 417.891L497.484 417.97L434.901 450.491V515.69L435.058 515.768L497.641 548.289L497.797 548.211L560.38 515.69V450.491L560.224 450.413L497.641 417.891ZM435.526 450.819L497.641 418.547L559.757 450.819V515.37L497.641 547.649L435.526 515.37V450.819Z" fill="#D1D1D1"/>
<path d="M747.342 353.021L747.187 353.099L684.611 385.621V450.82L684.768 450.898L747.351 483.419L747.507 483.341L810.09 450.82V385.621L809.934 385.543L747.342 353.021ZM685.236 385.949L747.351 353.669L809.467 385.949V450.5L747.351 482.771L685.236 450.5V385.949Z" fill="#D1D1D1"/>
<path d="M809.769 417.558L809.613 417.636L747.03 450.157V515.356L747.186 515.434L809.769 547.955L809.926 547.877L872.509 515.356V450.157L872.353 450.079L809.769 417.558ZM747.654 450.477L809.769 418.197L871.884 450.477V515.028L809.769 547.3L747.654 515.028V450.477Z" fill="#D1D1D1"/>
<path d="M872.197 384.552L871.781 384.77L808.937 417.424V483.162L809.353 483.38L872.197 516.034L872.613 515.816L935.457 483.162V417.424L935.04 417.206L872.197 384.552ZM810.602 418.291L872.197 386.284L933.792 418.291V482.303L872.197 514.309L810.602 482.303V418.291Z" fill="#D1D1D1"/>
<path d="M997.051 482.764L996.896 482.842L934.312 515.363V580.562L934.468 580.64L997.051 613.161L1059.79 580.562V515.363L1059.63 515.285L997.051 482.764ZM934.937 515.683L997.051 483.411L1059.17 515.683V580.234L997.051 612.513L934.937 580.234V515.683Z" fill="#D1D1D1"/>
<path d="M934.624 450.311L934.468 450.389L871.884 482.911V548.11L872.041 548.188L934.624 580.709L934.78 580.631L997.363 548.11V482.911L997.208 482.833L934.624 450.311ZM872.509 483.239L934.624 450.967L996.739 483.239V547.79L934.624 580.069L872.509 547.79V483.239Z" fill="#D1D1D1"/>
<path d="M872.197 482.764L872.04 482.842L809.457 515.363V580.562L809.613 580.64L872.197 613.161L934.936 580.562V515.363L934.78 515.285L872.197 482.764ZM810.081 515.683L872.197 483.411L934.311 515.683V580.234L872.197 612.513L810.081 580.234V515.683Z" fill="#D1D1D1"/>
<path d="M934.624 255.699L934.468 255.777L871.884 288.299V353.497L872.041 353.575L934.624 386.097L934.78 386.019L997.363 353.497V288.299L997.208 288.22L934.624 255.699ZM872.509 288.619L934.624 256.339L996.739 288.619V353.17L934.624 385.449L872.509 353.17V288.619Z" fill="#D1D1D1"/>
<path d="M872.197 255.341L872.04 255.419L809.457 287.94V353.139L809.613 353.217L872.197 385.738L872.352 385.66L934.936 353.139V287.94L934.78 287.862L872.197 255.341ZM810.081 288.268L872.197 255.988L934.311 288.268V352.819L872.197 385.09L810.081 352.819V288.268Z" fill="#D1D1D1"/>
<path d="M1059.48 352.679L1059.32 352.757L996.739 385.278V450.477L996.896 450.555L1059.48 483.076L1059.63 482.998L1122.22 450.477V385.278L1122.07 385.2L1059.48 352.679ZM997.363 385.606L1059.48 353.334L1121.59 385.606V450.157L1059.48 482.436L997.363 450.157V385.606Z" fill="#D1D1D1"/>
<path d="M997.051 320.233L996.896 320.311L934.312 352.833V418.031L934.468 418.11L997.051 450.631L997.208 450.553L1059.79 418.031V352.833L1059.63 352.755L997.051 320.233ZM934.937 353.153L997.051 320.873L1059.17 353.153V417.704L997.051 449.983L934.937 417.704V353.153Z" fill="#D1D1D1"/>
<path d="M372.787 158.714L372.631 158.792L310.047 191.313V256.512L310.203 256.59L372.787 289.111L372.943 289.033L435.527 256.512V191.313L435.37 191.235L372.787 158.714ZM310.671 191.641L372.787 159.362L434.902 191.641V256.192L372.787 288.464L310.671 256.192V191.641Z" fill="#D1D1D1"/>
<path d="M497.641 256.379L497.484 256.457L434.901 288.978V354.177L435.058 354.255L497.641 386.776L497.797 386.698L560.38 354.177V288.978L560.224 288.9L497.641 256.379ZM435.526 289.306L497.641 257.027L559.757 289.306V353.857L497.641 386.129L435.526 353.857V289.306Z" fill="#D1D1D1"/>
<path d="M435.214 223.935L435.058 224.013L372.474 256.535V321.734L372.631 321.812L435.214 354.333L435.37 354.255L497.953 321.734V256.535L497.798 256.457L435.214 223.935ZM373.099 256.855L435.214 224.575L497.329 256.855V321.406L435.214 353.677L373.099 321.406V256.855Z" fill="#D1D1D1"/>
<path d="M435.214 29.3149L435.058 29.3929L372.474 61.9149V127.113L372.631 127.192L435.214 159.713L435.37 159.635L497.953 127.113V61.9149L497.798 61.8369L435.214 29.3149ZM373.099 62.2419L435.214 29.9709L497.329 62.2419V126.793L435.214 159.073L373.099 126.793V62.2419Z" fill="#D1D1D1"/>
<path d="M372.787 28.9638L372.631 29.0418L310.047 61.5628V126.762L310.203 126.84L372.787 159.361L372.943 159.283L435.527 126.762V61.5628L435.37 61.4848L372.787 28.9638ZM310.671 61.8828L372.787 29.6118L434.902 61.8828V126.434L372.787 158.714L310.671 126.434V61.8828Z" fill="#D1D1D1"/>
<path opacity="0.34" d="M560.069 125.762L559.652 125.98L496.809 158.634V224.372L497.226 224.59L560.069 257.244L560.484 257.026L623.329 224.372V158.634L622.912 158.416L560.069 125.762ZM498.473 159.493L560.069 127.487L621.663 159.493V223.505L560.069 255.512L498.473 223.505V159.493Z" fill="#1814E5"/>
<path d="M497.641 93.8491L497.484 93.9271L434.901 126.448V191.647L435.058 191.725L497.641 224.246L497.797 224.168L560.38 191.647V126.448L560.224 126.37L497.641 93.8491ZM435.526 126.776L497.641 94.5042L559.757 126.776V191.327L497.641 223.598L435.526 191.327V126.776Z" fill="#D1D1D1"/>
<path d="M560.069 288.501L559.912 288.579L497.329 321.1V386.299L497.486 386.377L560.069 418.898L560.224 418.82L622.808 386.299V321.1L622.652 321.022L560.069 288.501ZM497.953 321.42L560.069 289.149L622.183 321.42V385.971L560.069 418.243L497.953 385.971V321.42Z" fill="#D1D1D1"/>
<path d="M684.923 321.257L684.767 321.335L622.183 353.856V419.055L622.34 419.133L684.923 451.654L685.079 451.576L747.662 419.055V353.856L747.507 353.778L684.923 321.257ZM622.808 354.176L684.923 321.897L747.039 354.176V418.727L684.923 451.007L622.808 418.727V354.176Z" fill="#D1D1D1"/>
<path d="M684.923 126.636L684.767 126.714L622.183 159.235V224.434L622.34 224.512L684.923 257.033L685.079 256.955L747.662 224.434V159.235L747.507 159.157L684.923 126.636ZM622.808 159.563L684.923 127.291L747.039 159.563V224.114L684.923 256.393L622.808 224.114V159.563Z" fill="#D1D1D1"/>
<path d="M622.497 125.591L622.34 125.669L559.757 158.19V223.389L559.912 223.467L622.497 255.988L622.652 255.91L685.236 223.389V158.19L685.08 158.112L622.497 125.591ZM560.381 158.518L622.497 126.246L684.611 158.518V223.069L622.497 255.348L560.381 223.069V158.518Z" fill="#D1D1D1"/>
<path d="M622.497 190.992L622.34 191.07L559.757 223.591V288.79L559.912 288.868L622.497 321.39L622.652 321.312L685.236 288.79V223.591L685.08 223.513L622.497 190.992ZM560.381 223.911L622.497 191.64L684.611 223.911V288.462L622.497 320.742L560.381 288.462V223.911Z" fill="#D1D1D1"/>
<path opacity="0.6" d="M1309.19 189.581L1308.77 189.8L1245.92 222.454V288.191L1246.34 288.409L1309.19 321.063L1309.6 320.845L1372.44 288.191V222.454L1372.03 222.235L1309.19 189.581ZM1247.59 223.32L1309.19 191.314L1370.78 223.32V287.332L1309.19 319.339L1247.59 287.332V223.32Z" fill="#1814E6"/>
<path d="M1246.76 190.47L1246.6 190.548L1184.02 223.069V288.268L1184.18 288.346L1246.76 320.867L1246.91 320.789L1309.5 288.268V223.069L1309.34 222.991L1246.76 190.47ZM1184.64 223.389L1246.76 191.11L1308.88 223.389V287.94L1246.76 320.219L1184.64 287.94V223.389Z" fill="#D1D1D1"/>
<path d="M1434.03 287.792L1433.88 287.87L1371.29 320.391V385.59L1371.44 385.668L1434.03 418.189L1434.19 418.111L1496.78 385.59V320.391L1496.61 320.313L1434.03 287.792ZM1371.92 320.719L1434.03 288.44L1496.14 320.719V385.27L1434.03 417.549L1371.92 385.27V320.719Z" fill="#D1D1D1"/>
<path opacity="0.3" d="M1371.61 254.802L1371.19 255.02L1308.34 287.674V353.412L1308.77 353.63L1371.61 386.284L1372.02 386.066L1434.87 353.412V287.674L1434.44 287.456L1371.61 254.802ZM1310.01 288.541L1371.61 256.534L1433.2 288.541V352.553L1371.61 384.559L1310.01 352.553V288.541Z" fill="#FFC300"/>
<path d="M1184.33 222.912L1184.18 222.99L1121.59 255.511V320.71L1121.74 320.788L1184.33 353.31L1184.49 353.231L1247.08 320.71V255.511L1246.91 255.433L1184.33 222.912ZM1122.22 255.839L1184.33 223.568L1246.44 255.839V320.39L1184.33 352.662L1122.22 320.39V255.839Z" fill="#D1D1D1"/>
<path d="M1309.19 287.792L1309.03 287.87L1246.44 320.391V385.59L1246.6 385.668L1309.19 418.189L1309.34 418.111L1371.92 385.59V320.391L1371.77 320.313L1309.19 287.792ZM1247.08 320.719L1309.19 288.44L1371.3 320.719V385.27L1309.19 417.549L1247.08 385.27V320.719Z" fill="#D1D1D1"/>
<path d="M1309.19 352.67L1309.03 352.748L1246.44 385.269V450.468L1246.6 450.546L1309.19 483.067L1309.34 482.989L1371.92 450.468V385.269L1371.77 385.191L1309.19 352.67ZM1247.08 385.589L1309.19 353.318L1371.3 385.589V450.14L1309.19 482.42L1247.08 450.14V385.589Z" fill="#D1D1D1"/>
<path d="M1184.33 482.404L1184.18 482.482L1121.59 515.004V580.202L1121.74 580.28L1184.33 612.802L1184.49 612.724L1247.08 580.202V515.004L1246.91 514.926L1184.33 482.404ZM1122.22 515.324L1184.33 483.044L1246.44 515.324V579.875L1184.33 612.154L1122.22 579.875V515.324Z" fill="#D1D1D1"/>
<path d="M1184.33 352.654L1184.18 352.732L1121.59 385.254V450.452L1121.74 450.53L1184.33 483.052L1184.49 482.974L1247.08 450.452V385.254L1246.91 385.176L1184.33 352.654ZM1122.22 385.574L1184.33 353.302L1246.44 385.574V450.125L1184.33 482.404L1122.22 450.125V385.574Z" fill="#D1D1D1"/>
<path d="M1371.61 449.992L1371.46 450.07L1308.87 482.591V547.79L1309.02 547.868L1371.61 580.39L1371.77 580.312L1434.34 547.79V482.591L1434.19 482.513L1371.61 449.992ZM1309.49 482.911L1371.61 450.632L1433.72 482.911V547.462L1371.61 579.742L1309.49 547.462V482.911Z" fill="#D1D1D1"/>
<path opacity="0.3" d="M1309.19 417.004L1308.77 417.222L1245.92 449.876V515.614L1246.34 515.832L1309.19 548.486L1309.6 548.268L1372.44 515.614V449.876L1372.03 449.658L1309.19 417.004ZM1247.59 450.735L1309.19 418.729L1370.78 450.735V514.747L1309.19 546.754L1247.59 514.747V450.735Z" fill="#1814E5"/>
<path d="M1246.76 514.841L1246.6 514.919L1184.02 547.44V612.639L1184.18 612.717L1246.76 645.238L1309.5 612.639V547.44L1309.34 547.362L1246.76 514.841ZM1184.64 547.768L1246.76 515.489L1308.88 547.768V612.319L1246.76 644.598L1184.64 612.319V547.768Z" fill="#D1D1D1"/>
<path d="M1309.19 612.162L1246.44 644.761V709.96L1246.6 710.038L1309.19 742.56L1371.92 709.96V644.761L1371.77 644.683L1309.19 612.162ZM1247.08 645.089L1309.19 612.81L1371.3 645.089V709.64L1309.19 741.92L1247.08 709.64V645.089Z" fill="#D1D1D1"/>
<path d="M1246.76 579.711L1246.6 579.789L1184.02 612.31V677.509L1184.18 677.587L1246.76 710.108L1309.5 677.509V612.31L1309.34 612.232L1246.76 579.711ZM1184.64 612.638L1246.76 580.366L1308.88 612.638V677.189L1246.76 709.468L1184.64 677.189V612.638Z" fill="#D1D1D1"/>
<path d="M1121.91 320.243L1121.74 320.321L1059.17 352.842V418.041L1059.32 418.119L1121.91 450.641L1122.07 450.563L1184.64 418.041V352.842L1184.49 352.764L1121.91 320.243ZM1059.79 353.162L1121.91 320.883L1184.02 353.162V417.713L1121.91 449.993L1059.79 417.713V353.162Z" fill="#D1D1D1"/>
<path d="M1121.91 417.526L1121.74 417.604L1059.17 450.126V515.324L1059.32 515.402L1121.91 547.924L1122.07 547.846L1184.64 515.324V450.126L1184.49 450.048L1121.91 417.526ZM1059.79 450.453L1121.91 418.174L1184.02 450.453V515.004L1121.91 547.284L1059.79 515.004V450.453Z" fill="#D1D1D1"/>
<path d="M123.087 61.0562L122.931 61.1341L60.3472 93.6552V158.854L60.5033 158.932L123.087 191.453L123.243 191.375L185.827 158.854V93.6552L185.67 93.5771L123.087 61.0562ZM60.9716 93.9831L123.087 61.7031L185.202 93.9831V158.534L123.087 190.805L60.9716 158.534V93.9831Z" fill="#D1D1D1"/>
<path d="M60.6589 60.8588L60.2427 61.0778L-2.60092 93.7318V159.469L-2.18468 159.688L60.6589 192.342L61.0751 192.123L123.919 159.469V93.7318L123.502 93.5128L60.6589 60.8588ZM-0.935964 94.5978L60.6589 62.5918L122.253 94.5978V158.611L60.6589 190.617L-0.935964 158.611V94.5978Z" fill="#D1D1D1"/>
<path d="M247.932 158.729L247.776 158.807L185.192 191.329V256.528L185.349 256.606L247.932 289.127L248.088 289.049L310.671 256.528V191.329L310.516 191.251L247.932 158.729ZM185.826 191.649L247.941 159.377L310.056 191.649V256.2L247.941 288.479L185.826 256.2V191.649Z" fill="#D1D1D1"/>
<path d="M185.513 126.277L185.358 126.355L122.774 158.877V224.075L122.93 224.153L185.513 256.675L185.67 256.597L248.253 224.075V158.877L248.097 158.799L185.513 126.277ZM123.399 159.197L185.513 126.925L247.629 159.197V223.755L185.513 256.035L123.399 223.755V159.197Z" fill="#D1D1D1"/>
<path d="M-1.76843 93.3121L-2.18467 93.5302L-65.0282 126.176V191.914L-64.612 192.132L-1.76843 224.786L-1.35219 224.568L61.4913 191.914V126.176L61.0751 125.958L-1.76843 93.3121ZM-63.3632 127.043L-1.76843 95.0361L59.8264 127.043V191.055L-1.76843 223.061L-63.3632 191.055V127.043Z" fill="#D1D1D1"/>
<path d="M-1.76788 158.729L-1.92397 158.807L-64.5073 191.329V256.528L-64.3513 256.606L-1.76788 289.127L-1.61179 289.049L60.9716 256.528V191.329L60.8156 191.251L-1.76788 158.729ZM-63.883 191.649L-1.76788 159.377L60.3472 191.649V256.2L-1.76788 288.479L-63.883 256.2V191.649Z" fill="#D1D1D1"/>
<path d="M123.087 158.729L122.931 158.807L60.3472 191.329V256.528L60.5033 256.606L123.087 289.127L123.243 289.049L185.827 256.528V191.329L185.67 191.251L123.087 158.729ZM60.9716 191.649L123.087 159.377L185.202 191.649V256.2L123.087 288.479L60.9716 256.2V191.649Z" fill="#D1D1D1"/>
<path d="M123.087 223.599L122.931 223.678L60.3472 256.199V321.398L60.5033 321.476L123.087 353.997L123.243 353.919L185.827 321.398V256.199L185.67 256.121L123.087 223.599ZM60.9716 256.527L123.087 224.255L185.202 256.527V321.078L123.087 353.349L60.9716 321.078V256.527Z" fill="#D1D1D1"/>
<path d="M60.6589 223.943L60.5028 224.021L-2.08063 256.543V321.741L-1.92454 321.819L60.6589 354.341L60.815 354.263L123.399 321.741V256.543L123.242 256.465L60.6589 223.943ZM-1.45626 256.863L60.6589 224.583L122.774 256.863V321.414L60.6589 353.685L-1.45626 321.414V256.863Z" fill="#D1D1D1"/>
<path d="M-1.76788 223.584L-1.92397 223.662L-64.5073 256.183V321.39L-64.3513 321.468L-1.76788 353.989L-1.61179 353.911L60.9716 321.39V256.191L60.8156 256.113L-1.76788 223.584ZM-63.883 256.511L-1.76788 224.232L60.3472 256.511V321.062L-1.76788 353.334L-63.883 321.062V256.511Z" fill="#D1D1D1"/>
<path d="M185.513 320.922L185.358 321L122.774 353.521V418.72L122.93 418.798L185.513 451.319L185.67 451.241L248.253 418.72V353.521L248.097 353.443L185.513 320.922ZM123.399 353.849L185.513 321.577L247.629 353.849V418.4L185.513 450.679L123.399 418.4V353.849Z" fill="#D1D1D1"/>
<path d="M123.087 287.932L122.67 288.15L59.8269 320.804V386.541L60.2432 386.76L123.087 419.414L123.503 419.196L186.347 386.541V320.804L185.93 320.586L123.087 287.932ZM61.4919 321.671L123.087 289.664L184.681 321.671V385.683L123.087 417.689L61.4919 385.683V321.671Z" fill="#D1D1D1"/>
<path d="M372.787 158.175L372.37 158.393L309.527 191.047V256.785L309.943 257.003L372.787 289.657L373.203 289.439L436.047 256.785V191.047L435.63 190.829L372.787 158.175ZM311.192 191.906L372.787 159.9L434.381 191.906V255.918L372.787 287.925L311.192 255.918V191.906Z" fill="#D1D1D1"/>
<path d="M310.359 191.163L310.203 191.241L247.62 223.762V288.961L247.776 289.039L310.359 321.561L310.516 321.483L373.099 288.961V223.762L372.942 223.684L310.359 191.163ZM248.244 224.082L310.359 191.803L372.474 224.082V288.633L310.359 320.913L248.244 288.633V224.082Z" fill="#D1D1D1"/>
<path opacity="0.34" d="M310.359 255.496L309.943 255.715L247.1 288.369V354.106L247.516 354.325L310.359 386.979L310.776 386.76L373.619 354.106V288.369L373.203 288.15L310.359 255.496ZM248.764 289.227L310.359 257.221L371.954 289.227V353.24L310.359 385.246L248.764 353.24V289.227Z" fill="#1814E5"/>
<path d="M247.932 353.349L247.776 353.427L185.192 385.948V451.147L185.349 451.225L247.932 483.746L248.088 483.668L310.671 451.147V385.948L310.516 385.87L247.932 353.349ZM185.817 386.276L247.932 354.004L310.047 386.276V450.827L247.932 483.106L185.817 450.827V386.276Z" fill="#D1D1D1"/>
<path d="M310.359 320.898L310.203 320.976L247.62 353.498V418.696L247.776 418.775L310.359 451.296L310.516 451.218L373.099 418.696V353.498L372.942 353.42L310.359 320.898ZM248.244 353.818L310.359 321.546L372.474 353.818V418.369L310.359 450.648L248.244 418.369V353.818Z" fill="#D1D1D1"/>
<path d="M1309.18 -36.588L1309.02 -36.5099L1246.44 -3.98895V61.2101L1246.6 61.2881L1309.18 93.8101L1309.33 93.7311L1371.92 61.2101V-3.98895L1371.77 -4.06696L1309.18 -36.588ZM1247.07 -3.66095L1309.18 -35.9319L1371.29 -3.66095V60.8901L1309.18 93.162L1247.07 60.8901V-3.66095Z" fill="#D1D1D1"/>
<path d="M1246.76 -69.0298L1246.6 -68.9518L1184.01 -36.4308V28.7682L1184.17 28.8462L1246.76 61.3672L1246.91 61.2892L1309.49 28.7682V-36.4308L1309.33 -36.5088L1246.76 -69.0298ZM1184.63 -36.1108L1246.76 -68.3828L1308.87 -36.1108V28.4402L1246.76 60.7122L1184.63 28.4402V-36.1108Z" fill="#D1D1D1"/>
<path d="M1059.48 -36.588L1059.32 -36.5099L996.739 -3.98895V61.2101L996.896 61.2881L1059.48 93.8101L1059.63 93.7311L1122.22 61.2101V-3.98895L1122.07 -4.06696L1059.48 -36.588ZM997.363 -3.66095L1059.48 -35.9319L1121.59 -3.66095V60.8901L1059.48 93.162L997.363 60.8901V-3.66095Z" fill="#D1D1D1"/>
<path d="M1184.32 -36.588L1184.17 -36.5099L1121.59 -3.98895V61.2101L1121.74 61.2881L1184.32 93.8101L1184.48 93.7311L1247.07 61.2101V-3.98895L1246.91 -4.06696L1184.32 -36.588ZM1122.21 -3.66095L1184.32 -35.9319L1246.44 -3.66095V60.8901L1184.32 93.162L1122.21 60.8901V-3.66095Z" fill="#D1D1D1"/>
<path d="M1184.32 28.2919L1184.17 28.3699L1121.59 60.8909V126.09L1121.74 126.168L1184.32 158.689L1184.48 158.611L1247.07 126.09V60.8909L1246.91 60.8129L1184.32 28.2919ZM1122.21 61.2109L1184.32 28.9319L1246.44 61.2109V125.762L1184.32 158.034L1122.21 125.762V61.2109Z" fill="#D1D1D1"/>
<path d="M1121.9 27.9409L1121.74 28.0189L1059.16 60.5409V125.739L1059.31 125.817L1121.9 158.339L1122.06 158.261L1184.63 125.739V60.5409L1184.48 60.4629L1121.9 27.9409ZM1059.79 60.8609L1121.91 28.5889L1184.02 60.8609V125.412L1121.91 157.683L1059.79 125.412V60.8609Z" fill="#D1D1D1"/>
<path d="M1059.48 28.2758L1059.32 28.3538L996.739 60.8758V126.074L996.896 126.152L1059.48 158.674L1059.63 158.596L1122.22 126.074V60.8758L1122.07 60.7978L1059.48 28.2758ZM997.363 61.2028L1059.48 28.9318L1121.59 61.2028V125.754L1059.48 158.026L997.363 125.754V61.2028Z" fill="#D1D1D1"/>
<path d="M1246.76 125.614L1246.6 125.692L1184.01 158.214V223.412L1184.17 223.49L1246.76 256.012L1246.91 255.934L1309.49 223.412V158.214L1309.33 158.136L1246.76 125.614ZM1184.63 158.541L1246.76 126.27L1308.87 158.541V223.092L1246.76 255.364L1184.63 223.092V158.541Z" fill="#D1D1D1"/>
<path d="M1184.32 93.162L1184.17 93.2401L1121.59 125.761V190.96L1121.74 191.038L1184.32 223.56L1184.48 223.481L1247.07 190.96V125.761L1246.91 125.683L1184.32 93.162ZM1122.21 126.089L1184.32 93.8181L1246.44 126.089V190.64L1184.32 222.912L1122.21 190.64V126.089Z" fill="#D1D1D1"/>
<path d="M1309.18 93.1712L1309.02 93.2492L1246.44 125.77V190.977L1246.6 191.055L1309.18 223.576L1309.33 223.498L1371.92 190.977V125.778L1371.77 125.7L1309.18 93.1712ZM1247.07 126.098L1309.18 93.8192L1371.29 126.098V190.649L1309.18 222.928L1247.07 190.649V126.098Z" fill="#D1D1D1"/>
<path d="M1496.46 449.415L1496.04 449.634L1433.2 482.288V548.025L1433.62 548.243L1496.46 580.897L1496.88 580.679L1559.72 548.025V482.288L1559.3 482.069L1496.46 449.415ZM1434.87 483.146L1496.46 451.14L1558.06 483.146V547.159L1496.46 579.165L1434.87 547.159V483.146Z" fill="#D1D1D1"/>
<path d="M1496.46 190.454L1496.3 190.532L1433.72 223.053V288.252L1433.88 288.33L1496.46 320.852L1496.62 320.774L1559.2 288.252V223.053L1559.04 222.975L1496.46 190.454ZM1434.34 223.373L1496.46 191.094L1558.58 223.373V287.924L1496.46 320.196L1434.34 287.924V223.373Z" fill="#D1D1D1"/>
<path d="M1496.46 385.098L1496.3 385.176L1433.72 417.697V482.896L1433.88 482.974L1496.46 515.495L1496.62 515.417L1559.2 482.896V417.697L1559.04 417.619L1496.46 385.098ZM1434.34 418.025L1496.46 385.745L1558.58 418.025V482.576L1496.46 514.855L1434.34 482.576V418.025Z" fill="#D1D1D1"/>
<path d="M747.342 190.47L747.187 190.548L684.603 223.069V288.268L684.759 288.346L747.342 320.867L747.499 320.789L810.082 288.268V223.069L809.926 222.991L747.342 190.47ZM685.236 223.389L747.351 191.117L809.467 223.389V287.94L747.342 320.219L685.227 287.94V223.389H685.236Z" fill="#D1D1D1"/>
<path d="M497.641 385.816L497.484 385.894L434.901 418.416V483.614L435.058 483.693L497.641 516.214L497.797 516.136L560.38 483.614V418.416L560.224 418.338L497.641 385.816ZM435.526 418.736L497.641 386.464L559.757 418.736V483.287L497.641 515.558L435.526 483.287V418.736Z" fill="#D1D1D1"/>
<path d="M435.214 353.365L435.058 353.443L372.474 385.965V451.163L372.631 451.241L435.214 483.763L435.37 483.685L497.953 451.163V385.965L497.798 385.886L435.214 353.365ZM373.099 386.292L435.214 354.013L497.329 386.292V450.843L435.214 483.123L373.099 450.843V386.292Z" fill="#D1D1D1"/>
<path d="M127.664 476.849C130.246 476.849 132.339 478.733 132.339 481.056C132.339 483.379 130.246 485.263 127.664 485.263C125.083 485.263 122.99 483.379 122.99 481.056C122.99 478.733 125.083 476.849 127.664 476.849Z" fill="#C5C8CD"/>
<path d="M919.119 633.009C921.7 633.009 923.793 634.892 923.793 637.215C923.793 639.539 921.7 641.422 919.119 641.422C916.538 641.422 914.444 639.539 914.444 637.215C914.444 634.892 916.538 633.009 919.119 633.009Z" fill="#C5C8CD"/>
<path d="M1371.61 575.855C1374.19 575.855 1376.28 577.739 1376.28 580.062C1376.28 582.385 1374.19 584.269 1371.61 584.269C1369.02 584.269 1366.93 582.385 1366.93 580.062C1366.93 577.739 1369.02 575.855 1371.61 575.855Z" fill="#C5C8CD"/>
<path d="M1059.48 283.742C1062.06 283.742 1064.15 285.625 1064.15 287.949C1064.15 290.272 1062.06 292.155 1059.48 292.155C1056.9 292.155 1054.8 290.272 1054.8 287.949C1054.8 285.625 1056.9 283.742 1059.48 283.742Z" fill="#C5C8CD"/>
<path d="M684.837 317.371C687.418 317.371 689.51 319.254 689.51 321.578C689.51 323.901 687.418 325.784 684.837 325.784C682.254 325.784 680.162 323.901 680.162 321.578C680.162 319.254 682.254 317.371 684.837 317.371Z" fill="#C5C8CD"/>
<path d="M439.888 515.536C439.888 513.21 437.798 511.329 435.213 511.329C432.629 511.329 430.54 513.21 430.54 515.536C430.54 517.861 432.629 519.742 435.213 519.742C437.798 519.742 439.888 517.854 439.888 515.536Z" fill="#C5C8CD"/>
<path d="M310.359 122.477C312.941 122.477 315.033 124.361 315.033 126.684C315.033 129.007 312.941 130.891 310.359 130.891C307.778 130.891 305.686 129.007 305.686 126.684C305.686 124.361 307.778 122.477 310.359 122.477Z" fill="#C5C8CD"/>
<path d="M123.087 219.721C125.668 219.721 127.76 221.605 127.76 223.928C127.76 226.251 125.668 228.135 123.087 228.135C120.504 228.135 118.412 226.251 118.412 223.928C118.412 221.605 120.504 219.721 123.087 219.721Z" fill="#C5C8CD"/>
<path d="M1121.9 446.105C1124.49 446.105 1126.58 447.989 1126.58 450.312C1126.58 452.635 1124.49 454.519 1121.9 454.519C1119.32 454.519 1117.23 452.635 1117.23 450.312C1117.23 447.989 1119.32 446.105 1121.9 446.105Z" fill="#C5C8CD"/>
</g>
<defs>
<clipPath id="clip0_1_271">
<rect width="1600" height="808" fill="white" transform="matrix(1 0 0 -1 0 808)"/>
</clipPath>
</defs>
</svg>
