<svg width="35" height="39" viewBox="0 0 35 39" fill="none" xmlns="http://www.w3.org/2000/svg">
<path d="M18.1536 0.594185C18.1536 0.594185 18.5966 10.0349 18.4883 17.3432C22.7879 13.5283 28.4778 9.17947 28.4778 9.17947C28.4778 9.17947 23.796 14.5971 19.7314 18.6616C26.1963 19.0493 34.3463 20.0942 34.3463 20.0942C34.3463 20.0942 26.1278 20.5633 19.6489 20.4934C23.4228 24.8343 27.7188 30.5682 27.7188 30.5682C27.7188 30.5682 22.3596 25.8436 18.336 21.7395C17.9384 29.0349 16.8463 38.4058 16.8463 38.4058C16.8463 38.4058 16.4048 28.9965 16.511 21.6933C12.2161 25.4998 6.56107 29.822 6.56107 29.822C6.56107 29.822 11.2422 24.4051 15.3067 20.3407C8.83574 19.9548 0.653598 18.9058 0.653598 18.9058C0.653598 18.9058 8.87205 18.4367 15.3509 18.5066C11.577 14.1657 7.28112 8.43182 7.28112 8.43182C7.28112 8.43182 12.6403 13.1564 16.6639 17.2606C17.0615 9.96513 18.1536 0.594185 18.1536 0.594185Z" fill="white"/>
</svg>
